<svg width="750" height="750" viewBox="0 0 750 750" fill="none" xmlns="http://www.w3.org/2000/svg">
<path d="M644.479 350.498C667.513 306.062 691.37 240.231 624.566 187.713C557.759 135.19 491.784 174.72 460.747 203.302C442.84 219.792 426.538 238.923 412.263 255.675C403.94 265.442 396.307 274.4 389.446 281.555C343.204 329.777 296.724 342.608 231.901 360.502C206.633 367.478 178.578 375.222 146.663 386.133C59.815 415.825 47.3191 443.768 57.3761 469.737C60.5972 468.386 63.9731 467.052 67.4981 465.737C126.148 443.862 226.107 427.361 342.098 427.361C490.204 427.361 644.237 480.88 701.87 523.749C693.083 506.084 670.286 487.145 649.418 469.808C632.429 455.694 616.718 442.642 610.888 432.205C599.217 411.313 606.996 401.866 620.171 385.862C627.42 377.058 636.303 366.269 644.479 350.498Z" fill="#E5F4F4"/>
<path d="M645.336 592.224L644.55 592.245L641.095 592.317C525.897 594.543 292.86 579.832 145.026 560.744C145.024 560.743 145.022 560.742 145.019 560.741L145 560.741C145.009 560.742 145.018 560.743 145.026 560.744C204.363 584.684 288.574 600.839 374.999 601.086C446.501 601.291 495.615 602.442 530.754 603.266C604.532 604.995 616.699 605.28 645.121 592.323L645.336 592.224Z" fill="#E5F4F4"/>
<path fill-rule="evenodd" clip-rule="evenodd" d="M348.964 447.422L351.79 447.604L347.607 514.697L345.591 517.234L342.492 515.106L348.964 447.422Z" fill="white"/>
<circle cx="562.057" cy="283.556" r="78.2548" fill="white"/>
<path fill-rule="evenodd" clip-rule="evenodd" d="M357.203 359.812C357.203 359.812 357.029 355.322 362.38 355.057C367.727 354.792 411.401 359.812 411.401 359.812C411.401 359.812 420.799 361.165 419.247 371.726C417.691 382.286 412.018 406.623 412.018 406.623C412.018 406.623 412.684 410.786 405.86 409.681C399.036 408.576 378.776 403.309 357.203 406.652C357.203 406.652 353.64 407.07 353.744 422.22L351.79 421.86C351.79 421.86 354.642 364.062 357.203 359.812Z" fill="white"/>
<path fill-rule="evenodd" clip-rule="evenodd" d="M389.258 324.078C389.68 323.627 389.258 324.078 389.258 324.078C387.544 325.916 386.088 327.55 385.148 328.73C380.667 334.366 374.662 339.708 372.237 343.793C372.237 343.793 361.503 348.684 357.203 343.598C357.203 343.598 367.064 330.666 374.886 324.889C374.886 324.889 382.483 321.148 389.258 324.078ZM397.592 315.454L389.655 313.149C389.655 313.149 397.704 308.134 402.165 306.234L405.86 307.236C405.86 307.236 402.041 310.968 397.592 315.454C397.48 315.574 397.592 315.454 397.592 315.454Z" fill="white"/>
<path fill-rule="evenodd" clip-rule="evenodd" d="M265.811 530.578C265.811 530.578 251.848 527.483 248.525 511.517C248.525 511.517 251.07 506.912 261.048 496.247C261.048 496.247 273.661 488.149 271.584 475.312C271.584 475.312 257.824 471.745 262.426 450.839L265.36 445.48C265.36 445.48 262.111 422.269 264.863 408.526C264.863 408.526 262.318 390.996 272.92 389.738C272.92 389.738 277.381 389.084 277.874 387.338C277.874 387.338 271.343 369.25 290.462 360.481C309.576 351.716 324.449 366.817 323.849 382.91C323.849 382.91 322.194 393.926 315.449 398.855C315.449 398.855 329.936 407.917 338.002 419.831C338.002 419.831 347.019 429.184 350.983 427.607C350.983 427.607 363.071 427.342 361.424 431.567C359.781 435.788 358.623 441.838 340.923 442.757C340.923 442.757 323.812 440.564 319.351 440.44L316.214 439.343C316.214 439.343 320.075 447.532 315.875 455.341C311.674 463.146 308.62 465.848 309.072 467.363L318.374 510.864C318.374 510.864 317.704 518.209 325.926 516.922C334.149 515.631 331.968 520.651 330.33 521.855C328.691 523.063 315.142 534.65 303.771 519.873C292.399 505.091 290.727 502.053 290.727 502.053L267.987 517.973C267.987 517.973 266.22 519.69 267.507 523.688C267.507 523.688 269.965 529.606 265.811 530.578Z" fill="white"/>
<path fill-rule="evenodd" clip-rule="evenodd" d="M473.83 289.894C469.776 198.841 563.498 203.272 563.698 203.302C675.598 219.855 648.964 361.81 562.245 366.302C562.185 366.305 477.328 368.463 473.83 289.894ZM477.045 289.785C474.603 234.943 510.746 216.931 536.995 211.072C537.084 211.165 537.199 211.265 537.334 211.372C539.138 212.808 540.926 214.13 543.351 214.596C544.773 214.87 546.15 215.368 547.528 215.866L547.529 215.866C548.591 216.251 549.655 216.635 550.742 216.917C552.18 217.291 553.676 217.458 555.167 217.625C555.598 217.673 556.028 217.721 556.456 217.774C556.852 217.823 557.255 217.825 557.657 217.827C558.164 217.831 558.67 217.834 559.159 217.93C559.805 218.057 560.442 218.239 561.078 218.42C561.867 218.646 562.654 218.871 563.458 218.99C564.029 219.075 564.621 219.046 565.211 219.017C565.917 218.982 566.62 218.947 567.278 219.109C569.007 219.533 570.686 220.185 572.358 220.834C572.595 220.925 572.831 221.017 573.067 221.108L573.444 221.253L573.444 221.254C575.216 221.937 576.998 222.623 578.683 223.488C580.301 224.319 581.811 224.156 582.672 222.704C583.984 220.495 585.362 218.435 588.283 218.166C588.849 218.114 589.399 217.873 589.948 217.633C590.199 217.523 590.449 217.413 590.7 217.322L590.404 217.205C589.679 216.92 588.955 216.636 588.234 216.343C588.22 216.337 588.223 216.302 588.226 216.262C588.229 216.217 588.233 216.167 588.213 216.153C586.471 214.88 583.582 215.922 582.606 217.796C582.006 218.95 580.847 220.094 579.664 220.596C578.454 221.109 577.435 220.473 576.357 219.8L576.356 219.8C575.912 219.523 575.457 219.239 574.975 219.027C572.91 218.41 571.048 217.8 569.194 217.174C568.612 216.977 568.033 216.767 567.455 216.557L567.453 216.557L567.453 216.557C566.219 216.109 564.986 215.661 563.719 215.347C563.084 215.189 562.411 215.201 561.735 215.212C561.208 215.221 560.679 215.23 560.164 215.159C559.15 215.018 558.141 214.831 557.132 214.643L557.131 214.643C556.013 214.436 554.894 214.228 553.767 214.084C553.02 213.988 552.254 213.967 551.492 213.946C550.252 213.912 549.018 213.878 547.878 213.525C547.461 213.395 547.056 213.246 546.654 213.097C545.599 212.709 544.556 212.324 543.322 212.306C542.229 212.291 540.955 211.539 540.11 210.746C540.002 210.644 539.897 210.557 539.795 210.484C553.086 207.867 563.206 208.317 563.269 208.326C664.444 223.989 643.617 358.029 562.245 362.244C562.189 362.247 480.327 363.51 477.045 289.785ZM248.795 516.696L248.88 516.945C249.406 518.484 250.303 519.897 251.226 521.351C251.586 521.918 251.95 522.492 252.298 523.082C252.522 523.356 252.726 523.625 252.922 523.885L252.922 523.885L252.922 523.886L252.923 523.886L252.923 523.886L252.923 523.887L252.923 523.887C253.277 524.354 253.606 524.79 253.993 525.168C256.459 527.572 259.153 529.679 262.357 531.019C262.571 531.11 262.847 531.057 263.123 531.004C263.399 530.95 263.675 530.897 263.887 530.99C266.763 532.261 269.617 530.63 269.502 527.46C269.462 526.371 269.136 525.295 268.808 524.213C268.579 523.459 268.35 522.701 268.216 521.936C268.079 521.141 268.219 520.123 268.628 519.445C269.702 517.665 271.407 516.581 273.204 515.526C274.052 515.028 274.773 514.322 275.497 513.613L275.497 513.612L275.497 513.612L275.497 513.612L275.498 513.612L275.498 513.612L275.498 513.612L275.499 513.611C276.063 513.058 276.628 512.504 277.257 512.046C278.256 511.319 279.317 510.681 280.379 510.043C281.156 509.576 281.933 509.109 282.686 508.607C283.204 508.26 283.69 507.874 284.176 507.488C285.321 506.58 286.463 505.673 288.015 505.284C289.979 504.795 292.03 505.416 293.199 507.245C293.7 508.029 294.295 508.751 294.89 509.474C295.342 510.022 295.794 510.571 296.206 511.148C297.204 512.542 298.144 513.986 299.022 515.46C299.375 516.05 299.682 516.676 299.989 517.3L299.989 517.301C300.521 518.384 301.051 519.464 301.813 520.351C302.851 521.558 304.045 522.631 305.241 523.704C306.053 524.434 306.866 525.164 307.632 525.938C309.788 528.114 312.566 528.685 315.378 528.925C316.822 529.045 318.283 528.761 319.709 528.485L319.709 528.485C320.604 528.311 321.486 528.14 322.34 528.073C323.471 527.985 324.371 527.539 325.255 527.101C326.079 526.693 326.888 526.292 327.855 526.194C328.761 526.103 329.598 525.335 330.435 524.568C330.809 524.225 331.183 523.882 331.563 523.6C333.962 521.816 334.041 518.505 331.641 516.821C331.396 516.651 331.033 516.637 330.674 516.624C330.301 516.611 329.93 516.597 329.699 516.407C327.853 514.897 325.876 515.298 323.855 515.737C322.069 516.122 319.895 514.144 319.92 512.327C319.93 511.587 319.733 510.84 319.538 510.103L319.538 510.103C319.488 509.912 319.437 509.723 319.391 509.534C319.278 509.068 319.135 508.606 318.992 508.146L318.992 508.145C318.736 507.316 318.48 506.491 318.397 505.648C318.324 504.909 318.144 504.195 317.964 503.482C317.728 502.546 317.491 501.61 317.496 500.612C317.499 500.013 317.267 499.42 317.033 498.822C316.861 498.381 316.688 497.938 316.607 497.487C316.488 496.836 316.441 496.173 316.394 495.511V495.51V495.51C316.344 494.821 316.295 494.132 316.167 493.457C315.993 492.545 315.764 491.645 315.536 490.745L315.536 490.744L315.535 490.743C315.277 489.723 315.018 488.704 314.84 487.672C314.708 486.906 314.707 486.119 314.707 485.331C314.706 484.819 314.706 484.306 314.67 483.798C314.648 483.499 314.647 483.176 314.646 482.849C314.643 481.929 314.64 480.981 314.178 480.459C313.61 479.82 313.634 479.154 313.659 478.474C313.679 477.909 313.7 477.334 313.38 476.759C312.767 475.657 312.731 474.226 312.696 472.806V472.805C312.683 472.274 312.669 471.745 312.626 471.235C312.596 470.883 312.638 470.487 312.68 470.098V470.098V470.098V470.097V470.097V470.097V470.096V470.096V470.096V470.096V470.095V470.095V470.095V470.095V470.094V470.094V470.094V470.093V470.093C312.751 469.428 312.821 468.782 312.525 468.404C311.44 467.023 312.065 465.652 312.527 464.638C312.554 464.579 312.58 464.522 312.605 464.466C313.36 462.788 314.258 461.174 315.156 459.56L315.156 459.559C316.118 457.83 317.079 456.101 317.865 454.295C318.596 452.613 318.829 450.694 319.057 448.81C319.103 448.432 319.149 448.056 319.198 447.683C319.287 447.01 319.262 446.321 319.237 445.632V445.632V445.632V445.632V445.631V445.631V445.631V445.631V445.63V445.63V445.63V445.63V445.63V445.629V445.629V445.629V445.629V445.628V445.628V445.628V445.628V445.627C319.21 444.861 319.182 444.096 319.312 443.357C319.405 442.834 320.125 442.383 320.735 442.001C320.827 441.944 320.917 441.888 321.001 441.834C321.063 441.794 321.202 441.916 321.37 442.063C321.565 442.234 321.798 442.438 321.993 442.463C322.547 442.534 323.153 442.528 323.755 442.522C324.926 442.511 326.083 442.5 326.817 443.057C328.134 444.057 329.516 444.004 330.835 443.954C331.38 443.933 331.915 443.912 332.429 443.967C335.315 444.274 338.253 444.093 341.191 443.911L341.191 443.911L341.192 443.911L341.193 443.911L341.193 443.911L341.194 443.911L341.195 443.911L341.195 443.911L341.196 443.911L341.197 443.911L341.197 443.911L341.198 443.911L341.198 443.911L341.199 443.911L341.2 443.911L341.2 443.911L341.201 443.911L341.202 443.911L341.202 443.911C342.353 443.84 343.504 443.769 344.652 443.727C345.411 443.7 346.177 443.67 346.925 443.549C350.649 442.949 354.309 442.079 357.255 439.562C358.165 438.784 358.928 437.835 359.691 436.887C360.011 436.49 360.331 436.092 360.661 435.708C361.539 434.685 361.869 433.521 362.243 432.188C362.936 429.724 361.396 426.632 358.729 426.83C357.633 426.912 356.892 426.568 356.011 426.146C355.485 425.893 354.776 425.889 354.169 425.957C353.749 426.004 353.326 426.085 352.904 426.165C351.192 426.491 349.498 426.814 348.124 424.892C347.837 424.491 347.271 424.273 346.726 424.064C346.566 424.003 346.409 423.942 346.26 423.878C345.953 423.745 345.619 423.648 345.287 423.551C344.693 423.377 344.104 423.205 343.684 422.835C341.957 421.317 340.349 419.651 338.794 417.951C337.999 417.083 337.246 416.176 336.493 415.27L336.493 415.269L336.492 415.269L336.492 415.268L336.492 415.268L336.492 415.268L336.492 415.268L336.491 415.268L336.491 415.268L336.491 415.267L336.491 415.267L336.491 415.267L336.491 415.267L336.49 415.267L336.49 415.266L336.49 415.266L336.49 415.266L336.49 415.266L336.489 415.266L336.489 415.266L336.489 415.265L336.489 415.265C335.711 414.328 334.932 413.391 334.108 412.496C332.482 410.731 330.778 409.029 329.013 407.404C327.564 406.068 326.018 404.825 324.434 403.652C323.282 402.799 322.042 402.061 320.806 401.326L320.453 401.116C318.816 400.139 318.681 398.421 318.645 396.88C318.637 396.519 319.279 396.144 319.922 395.767C320.218 395.594 320.514 395.421 320.747 395.248C320.801 395.208 320.86 395.16 320.892 395.102C321.164 394.607 321.438 394.112 321.713 393.618C322.521 392.159 323.33 390.701 324.096 389.221C324.295 388.837 324.373 388.388 324.451 387.943V387.942L324.451 387.942L324.451 387.942C324.48 387.777 324.508 387.613 324.543 387.452C324.665 386.885 324.807 386.319 324.949 385.752C325.322 384.267 325.694 382.781 325.71 381.292C325.718 380.559 325.568 379.568 325.424 378.707C325.151 377.075 324.863 375.436 324.416 373.846C324.256 373.275 323.979 372.74 323.701 372.202C323.49 371.793 323.278 371.383 323.117 370.957C322.919 370.434 322.777 369.871 322.636 369.311L322.636 369.311C322.371 368.264 322.109 367.225 321.492 366.468C320.931 365.781 320.462 365.012 319.992 364.241L319.991 364.241L319.991 364.24C318.897 362.447 317.798 360.645 315.526 359.836C314.61 359.51 313.742 359.007 312.878 358.507C311.724 357.84 310.579 357.177 309.341 356.947C306.149 356.354 302.808 356.407 299.534 356.463C296.955 356.506 294.276 356.617 291.844 357.361C290.091 357.897 288.321 358.763 286.642 359.888C286.336 360.093 286.025 360.296 285.712 360.5C284.11 361.546 282.472 362.615 281.424 364.022C281.02 364.564 280.554 365.083 280.084 365.606C278.664 367.187 277.206 368.81 277.303 371.241C275.707 372.15 275.661 373.712 275.619 375.161C275.606 375.614 275.593 376.056 275.534 376.464L275.527 376.511C275.278 378.203 275.011 380.016 275.399 382.014C275.874 384.463 276.412 386.66 277.69 388.763C278.446 390.006 279.07 391.328 276.974 392.02C276.681 392.117 276.32 392.37 276.222 392.636C275.723 393.994 275.049 395.225 273.611 395.709C272.292 396.153 272.39 397.078 272.487 397.985C272.512 398.217 272.537 398.448 272.537 398.67C272.538 398.788 273.642 399.168 273.911 398.976C274.729 398.39 275.519 397.763 276.31 397.138L276.31 397.137L276.311 397.137L276.311 397.136L276.312 397.136L276.312 397.136L276.313 397.135L276.313 397.135C277.398 396.276 278.481 395.418 279.634 394.664C280.33 394.208 281.557 394.145 282.383 394.404C283.28 394.685 284.122 395.132 284.966 395.581L284.966 395.581C285.48 395.854 285.994 396.128 286.521 396.364C287.88 396.973 289.252 397.551 290.624 398.13L290.624 398.13C291.342 398.432 292.059 398.734 292.775 399.041C293.709 399.442 293.879 399.966 293.009 400.642C292.562 400.99 292.113 401.336 291.665 401.682L291.655 401.689L291.655 401.69L291.655 401.69L291.654 401.69L291.654 401.691L291.653 401.691L291.653 401.691L291.653 401.692L291.652 401.692L291.652 401.692L291.651 401.693L291.651 401.693L291.651 401.693L291.65 401.694L291.65 401.694L291.649 401.694L291.649 401.695L291.648 401.695L291.648 401.695L291.648 401.696L291.647 401.696C290.479 402.597 289.312 403.498 288.163 404.424C284.973 406.995 283.368 410.564 282.928 414.431C282.625 417.102 282.921 420.042 283.775 422.585C284.45 424.594 285.829 426.399 287.173 428.158L287.173 428.158L287.176 428.162C287.416 428.476 287.655 428.789 287.889 429.101C289.634 431.434 292.118 432.816 294.589 434.191C295.296 434.584 296.002 434.976 296.688 435.39C298.278 436.348 300.121 436.937 301.911 437.492C302.791 437.766 303.704 437.933 304.616 438.101L304.617 438.101C305.346 438.235 306.076 438.369 306.791 438.558C307.444 438.729 308.079 438.97 308.714 439.211C309.306 439.435 309.897 439.659 310.504 439.828C311.597 440.132 312.705 440.381 313.813 440.63L313.813 440.63L313.815 440.63L313.816 440.631L313.818 440.631L313.819 440.631L313.821 440.632L313.822 440.632L313.824 440.632C314.372 440.756 314.92 440.879 315.467 441.009C315.474 441.01 315.478 441.021 315.48 441.037C315.482 441.049 315.483 441.063 315.484 441.078L315.484 441.079C315.487 441.121 315.491 441.171 315.512 441.187C316.249 441.772 317.287 446.171 317.002 447.022C316.484 448.566 316.044 450.138 315.605 451.707L315.604 451.709L315.515 452.028C315.42 452.367 315.36 452.724 315.3 453.08L315.3 453.081C315.192 453.722 315.085 454.36 314.775 454.882L314.481 455.38C313.126 457.673 311.757 459.988 310.074 462.029C308.4 464.059 306.445 465.971 303.951 467.036C303.464 467.244 303.046 467.565 302.623 467.888C301.756 468.553 300.874 469.23 299.348 468.963C298.528 468.819 297.525 469.712 296.526 470.6C296.085 470.993 295.645 471.384 295.221 471.686C295.118 471.757 295.041 471.867 294.963 471.977C294.928 472.026 294.894 472.075 294.857 472.12C294.874 472.125 294.89 472.13 294.907 472.136L294.932 472.145L294.953 472.152L294.97 472.158L294.99 472.166L295.036 472.183C295.16 472.23 295.284 472.277 295.409 472.277C295.838 472.283 296.27 472.271 296.701 472.259C297.586 472.235 298.47 472.21 299.332 472.335C300.17 472.455 301.667 473.155 301.629 473.42C301.43 474.803 301.349 476.193 301.268 477.586V477.587C301.138 479.82 301.007 482.062 300.386 484.299C299.994 485.707 299.358 486.971 298.726 488.229C298.246 489.182 297.769 490.131 297.401 491.135C296.434 493.78 294.072 496.101 291.874 498.067C289.994 499.751 287.909 501.206 285.825 502.662C284.785 503.388 283.745 504.115 282.729 504.87C281.524 505.77 280.342 506.702 279.16 507.633C278.472 508.175 277.785 508.717 277.092 509.252L276.885 509.412C275.826 510.228 274.765 511.046 273.68 511.83C273.239 512.149 272.805 512.483 272.37 512.818C271.234 513.694 270.096 514.572 268.826 515.162C266.785 516.105 265.527 517.653 265.543 519.623C265.555 521.063 265.946 522.498 266.338 523.936L266.338 523.936C266.534 524.655 266.73 525.374 266.879 526.095C266.969 526.526 266.975 526.975 266.981 527.424C266.984 527.63 266.986 527.836 266.997 528.04C266.583 528.027 266.157 528.046 265.73 528.066C264.768 528.109 263.805 528.153 262.986 527.829C262.004 527.442 261.116 526.829 260.225 526.214C259.6 525.783 258.974 525.35 258.313 524.994C255.933 523.711 254.624 521.535 253.37 519.329C252.474 517.75 251.726 516.079 250.984 514.42L250.882 514.193C250.856 514.135 250.829 514.075 250.8 514.012C250.506 513.365 250.13 512.537 250.358 512.091C251.107 510.634 252.091 509.273 253.135 507.998C255.206 505.467 257.342 502.99 259.478 500.512L260.216 499.656C260.521 499.301 260.82 498.936 261.119 498.571C261.984 497.513 262.853 496.451 263.901 495.621C266.771 493.349 269.072 490.672 271.087 487.63C272.656 485.259 273.272 482.875 272.686 480.128C272.65 479.953 272.765 479.747 272.88 479.541C272.934 479.445 272.988 479.348 273.027 479.254C272.534 479.13 272.041 479.004 271.548 478.878L271.528 478.873L271.508 478.868C271.016 478.743 270.524 478.617 270.032 478.493C269.984 478.697 269.918 478.902 269.851 479.108C269.706 479.555 269.561 480.002 269.606 480.43C269.956 483.773 268.89 486.273 266.357 488.702C263.11 491.817 260.13 495.213 257.151 498.608L257.149 498.611C256.159 499.739 255.169 500.868 254.169 501.986C253.637 502.58 253.077 503.14 252.518 503.699C250.604 505.614 248.711 507.507 248.055 510.672C247.555 513.087 248.163 514.858 248.795 516.696ZM342.152 440.27L342.15 440.27L342.149 440.271L342.147 440.271L342.146 440.271L342.145 440.271C341.306 440.334 340.464 440.397 339.617 440.446C326.817 441.187 312.315 437.398 311.292 436.924C310.176 436.406 308.954 436.113 307.733 435.821C307.248 435.704 306.763 435.588 306.285 435.458C305.872 435.346 305.456 435.242 305.04 435.139C304.389 434.978 303.738 434.816 303.097 434.619C301.375 434.088 299.661 433.523 297.961 432.926C297.351 432.713 296.76 432.412 296.208 432.073C295.802 431.824 295.387 431.584 294.972 431.345L294.971 431.345L294.971 431.344C293.815 430.679 292.657 430.011 291.699 429.129C290.748 428.253 290.059 427.069 289.384 425.909L289.384 425.909L289.384 425.909L289.323 425.805C289.22 425.627 289.116 425.45 289.012 425.275C288.27 424.027 287.594 422.712 287.052 421.376C284.773 415.759 287.628 409.689 288.826 407.74C290.342 405.273 293.165 403.917 295.468 403.501C297.443 403.144 300.051 403.063 302.444 403.889C304.09 404.457 305.523 405.316 306.949 406.172C307.796 406.681 308.641 407.187 309.526 407.631C312.501 409.12 315.163 411.051 317.803 412.965L318.113 413.191C319.637 414.295 320.945 415.689 322.257 417.086C323.063 417.945 323.87 418.804 324.728 419.599C326.06 420.83 327.497 421.95 328.932 423.067C329.271 423.332 329.611 423.596 329.949 423.862C330.303 424.141 330.654 424.43 331.005 424.72L331.006 424.721C332.068 425.597 333.134 426.477 334.333 427.089C335.852 427.865 337.487 428.42 339.118 428.974L339.119 428.975L339.119 428.975L339.12 428.975L339.12 428.975L339.121 428.975L339.121 428.976L339.122 428.976L339.122 428.976L339.123 428.976L339.124 428.976L339.124 428.976L339.125 428.977L339.125 428.977L339.126 428.977C339.647 429.154 340.169 429.331 340.686 429.516C341.943 429.964 343.216 430.388 344.51 430.706C344.654 430.742 344.799 430.778 344.944 430.815L344.945 430.815L344.946 430.816C345.959 431.072 347.005 431.337 348.006 431.255C350.92 431.017 351.054 430.915 353.481 429.07L353.481 429.07C353.611 428.971 353.747 428.868 353.891 428.759C354.184 428.536 354.672 428.374 355.015 428.446C357.023 428.866 359.084 429.372 360.386 431.045C360.669 431.408 359.993 432.88 359.399 433.492C359.288 433.607 359.177 433.721 359.067 433.836C357.296 435.668 355.563 437.461 352.991 438.518C350.759 439.435 348.646 439.958 346.302 440.024C344.915 440.063 343.537 440.166 342.153 440.27L342.152 440.27ZM278.732 385.072C278.72 384.862 278.707 384.653 278.683 384.452C278.575 383.55 278.48 382.646 278.384 381.742L278.384 381.74C278.345 381.368 278.305 380.996 278.265 380.624C278.493 378.741 278.693 377.268 278.956 375.805C279.003 375.544 279.043 375.277 279.083 375.008C279.211 374.146 279.341 373.274 279.723 372.541C280.158 371.704 280.703 370.925 281.249 370.146C281.772 369.398 282.295 368.65 282.722 367.851C284.175 365.131 286.696 363.786 289.182 362.459C289.849 362.103 290.514 361.748 291.155 361.369C292.529 360.555 294.241 360.287 295.932 360.022C296.475 359.938 297.016 359.853 297.543 359.751C298.931 359.482 300.367 359.316 301.778 359.343C304.035 359.387 306.212 359.907 308.422 360.461C311.431 361.215 313.847 362.763 316.058 364.731C316.511 365.135 316.774 365.75 317.037 366.367L317.037 366.367C317.166 366.668 317.294 366.969 317.445 367.246C317.757 367.818 318.073 368.386 318.389 368.955L318.389 368.957L318.392 368.96L318.394 368.964L318.394 368.965L318.394 368.965L318.394 368.965L318.394 368.965L318.395 368.966L318.395 368.966L318.395 368.966L318.395 368.967L318.395 368.967L318.396 368.967L318.396 368.968L318.396 368.968L318.396 368.968L318.396 368.969L318.396 368.969L318.397 368.969L318.397 368.97L318.397 368.97L318.397 368.97L318.397 368.971C318.929 369.928 319.461 370.885 319.97 371.853C320.682 373.207 319.496 374.73 317.931 374.813C316.837 374.871 308.739 375.556 305.814 378.12C303.32 380.306 302.714 381.145 301.737 382.498C301.568 382.732 301.389 382.982 301.186 383.256C300.468 384.227 299.859 388.685 300.249 389.873C300.59 390.912 301.058 391.909 301.526 392.906L301.526 392.906L301.526 392.907L301.526 392.907L301.526 392.907L301.526 392.907L301.526 392.908L301.526 392.908L301.526 392.908L301.527 392.908L301.527 392.908L301.527 392.909L301.527 392.909L301.527 392.909L301.527 392.909L301.527 392.91L301.527 392.91L301.527 392.91L301.527 392.91L301.527 392.911L301.528 392.911L301.528 392.911C301.902 393.709 302.276 394.507 302.587 395.327C302.809 395.914 302.862 396.565 302.915 397.216C302.939 397.511 302.963 397.807 303.003 398.096C302.717 398.088 302.429 398.091 302.14 398.094C301.486 398.102 300.831 398.109 300.204 397.982C299.507 397.84 298.834 397.577 298.161 397.313L298.16 397.312C297.86 397.195 297.56 397.077 297.258 396.971C295.955 396.51 294.651 396.05 293.346 395.59L291.395 394.901C290.974 394.753 290.548 394.615 290.122 394.477C289.183 394.174 288.243 393.871 287.36 393.451C284.027 391.868 280.91 389.954 279.039 386.607C278.798 386.174 278.765 385.62 278.732 385.072ZM313.113 493.644C313.319 494.497 313.525 495.349 313.714 496.205C313.745 496.346 313.651 496.512 313.558 496.679C313.514 496.756 313.471 496.833 313.44 496.908C313.716 498.472 313.977 499.627 314.27 500.773C314.479 501.586 314.694 502.397 314.909 503.209L314.909 503.212C315.32 504.764 315.732 506.317 316.097 507.878C316.299 508.747 316.396 509.687 316.311 510.568C316.082 512.944 318.823 518.096 321.01 518.452C322.498 518.694 324.027 518.672 325.559 518.65C326.508 518.636 327.458 518.622 328.401 518.671C329.141 518.708 329.945 519.056 330.538 519.503C330.723 519.643 330.486 520.732 330.141 521.108C329.332 521.99 328.403 522.797 327.41 523.463C323.894 525.83 319.88 525.793 315.881 525.656C312.345 525.536 309.121 524.725 306.975 521.506C305.967 519.994 304.902 518.52 303.836 517.046C303.178 516.136 302.52 515.225 301.875 514.305C301.335 513.533 300.81 512.752 300.284 511.971C299.641 511.014 298.998 510.058 298.328 509.12C297.823 508.414 297.286 507.724 296.75 507.035C295.595 505.551 294.441 504.069 293.607 502.424C293.173 501.568 294.047 499.656 294.849 498.642C295.703 497.562 296.67 496.57 297.637 495.578C298.741 494.446 299.844 493.314 300.777 492.054C301.225 491.447 301.381 490.613 301.536 489.785C301.699 488.915 301.861 488.05 302.361 487.461C303.633 485.964 303.651 484.295 303.668 482.657C303.675 481.949 303.682 481.247 303.79 480.566C303.948 479.578 304.094 478.584 304.24 477.59L304.241 477.588C304.547 475.505 304.854 473.418 305.265 471.363C305.417 470.609 306.223 469.971 306.999 469.357C307.258 469.152 307.514 468.95 307.741 468.747C307.843 468.656 308.635 469.021 308.739 469.306C309.087 470.266 309.353 471.276 309.495 472.29C309.664 473.498 309.806 474.711 309.948 475.923L309.948 475.924L309.948 475.924L309.948 475.925L309.948 475.925L309.948 475.926L309.948 475.926L309.948 475.927L309.949 475.927L309.949 475.928L309.949 475.928L309.949 475.928L309.949 475.929L309.949 475.929L309.949 475.93L309.949 475.93L309.949 475.931L309.949 475.931L309.95 475.933C310.136 477.521 310.322 479.109 310.569 480.686C310.697 481.503 310.924 482.304 311.15 483.106L311.15 483.107L311.151 483.107L311.151 483.108L311.151 483.108L311.151 483.109L311.151 483.109L311.151 483.11L311.151 483.11L311.151 483.11L311.151 483.111L311.151 483.111L311.151 483.112L311.152 483.112L311.152 483.113L311.152 483.113L311.152 483.114L311.152 483.114L311.152 483.115L311.152 483.115L311.152 483.116L311.153 483.117L311.153 483.117L311.153 483.118L311.153 483.118L311.153 483.119L311.153 483.119L311.153 483.12L311.153 483.12L311.153 483.121L311.153 483.121L311.153 483.121L311.154 483.122L311.154 483.122L311.154 483.123L311.154 483.123L311.154 483.124L311.154 483.124L311.154 483.125L311.154 483.125C311.353 483.828 311.552 484.532 311.684 485.247C311.817 485.963 311.88 486.693 311.944 487.422L311.944 487.424V487.424C312.01 488.185 312.077 488.945 312.221 489.691C312.477 491.011 312.793 492.321 313.109 493.63L313.109 493.63L313.11 493.631L313.11 493.632L313.11 493.633L313.11 493.633L313.11 493.634L313.11 493.635L313.111 493.635L313.111 493.636L313.111 493.637L313.111 493.638L313.111 493.638L313.112 493.639L313.112 493.64L313.112 493.641L313.112 493.641L313.112 493.642L313.112 493.643L313.113 493.643L313.113 493.644ZM310.786 398.052C310.01 398.28 308.737 397.652 308.016 397.034C307.375 396.485 306.896 395.748 306.417 395.011C306.21 394.694 306.004 394.376 305.784 394.073C305.589 393.78 305.395 393.502 305.207 393.233C304.6 392.362 304.063 391.591 303.762 390.736C303.579 390.217 303.578 389.638 303.578 389.055C303.578 388.589 303.578 388.121 303.484 387.677C303.049 385.622 304.16 384.338 305.305 383.014L305.306 383.013C305.473 382.819 305.642 382.624 305.806 382.426C307.133 380.826 308.765 379.639 310.566 378.738C311.599 378.22 312.851 378.005 314.021 377.929C314.775 377.88 315.54 377.913 316.303 377.947C317.405 377.995 318.503 378.043 319.557 377.842C320.734 377.617 321.104 378.174 321.494 378.802C321.856 379.387 322.081 380.146 322.101 380.837C322.153 382.66 322.092 384.49 321.995 386.313C321.988 386.456 321.831 386.587 321.67 386.72C321.513 386.852 321.353 386.985 321.328 387.135C320.761 390.625 318.623 393.253 316.207 395.494C314.8 396.8 312.695 397.488 310.786 398.052ZM335.689 424.167C335.65 424.209 335.611 424.251 335.579 424.282C335.276 424.02 334.981 423.764 334.693 423.513C333.508 422.483 332.437 421.552 331.316 420.688C331.033 420.469 330.688 420.326 330.344 420.183C329.969 420.028 329.596 419.874 329.305 419.622C328.319 418.771 327.366 417.882 326.413 416.994C325.605 416.242 324.798 415.49 323.971 414.76C322.278 413.266 320.541 411.821 318.787 410.4C318.419 410.102 318.054 409.798 317.689 409.494C316.446 408.458 315.199 407.42 313.827 406.597C312.527 405.817 311.142 405.179 309.757 404.54L309.756 404.54C308.918 404.154 308.08 403.768 307.26 403.35C306.352 402.887 305.499 402.315 304.648 401.746C304.521 401.66 304.393 401.574 304.265 401.489C304.244 401.476 304.524 400.75 304.709 400.728C305.376 400.647 306.053 400.527 306.731 400.408L306.732 400.408C308.48 400.099 310.236 399.789 311.849 400.132C314.131 400.618 316.438 401.44 318.6 402.928C322.165 405.382 325.315 408.19 328.308 411.235C331.598 414.583 334.843 417.974 338.088 421.366L339.273 422.605C340.71 424.106 342.105 425.647 343.499 427.189C343.626 427.329 343.714 427.688 343.629 427.801C343.346 428.173 342.857 428.817 342.661 428.748C342.015 428.52 341.429 428.094 340.86 427.68L340.86 427.68L340.757 427.605C339.899 426.983 339.048 426.353 338.196 425.722C337.419 425.148 336.643 424.573 335.862 424.004C335.85 423.995 335.77 424.081 335.689 424.167ZM708.623 525.064C708.253 525.079 707.862 525.134 707.471 525.19C706.61 525.312 705.748 525.434 705.105 525.118C705.066 525.099 704.96 525.046 704.789 524.959L704.747 524.938L704.739 524.934C698.285 521.678 611.292 477.79 522.548 450.787C445.621 427.379 364.824 420.751 361.368 420.468L361.269 420.46C360.9 420.428 443.376 418.385 523.762 442.491C616.176 470.203 708.237 524.6 708.623 525.064ZM420.311 371.584L420.311 371.583C420.409 370.677 420.508 369.76 420.62 368.83C420.559 368.585 420.502 368.344 420.445 368.109C420.184 367.018 419.948 366.032 419.579 365.1C419.544 365.013 419.51 364.926 419.477 364.838L419.428 364.712C418.862 363.249 418.296 361.784 416.397 361.329C415.979 361.228 415.622 360.907 415.259 360.58C414.961 360.311 414.658 360.039 414.315 359.884C413.311 359.432 412.218 359.117 411.132 358.926C410.583 358.83 410.02 358.816 409.456 358.802C408.901 358.788 408.346 358.774 407.805 358.682C406.834 358.516 405.868 358.307 404.903 358.099C403.418 357.778 401.935 357.458 400.433 357.293C399.855 357.229 399.278 357.175 398.701 357.12L398.699 357.12C397.087 356.967 395.479 356.815 393.872 356.475C392.384 356.159 390.836 356.115 389.292 356.071H389.292H389.291H389.291H389.29C388.797 356.057 388.304 356.043 387.814 356.021C387.589 356.01 387.357 356.085 387.126 356.159C386.871 356.241 386.617 356.322 386.378 356.286C384.674 356.029 382.978 355.719 381.282 355.409C380.849 355.33 380.416 355.251 379.984 355.173C379.229 355.037 378.479 355.048 377.72 355.06C376.872 355.073 376.014 355.086 375.126 354.894C373.601 354.564 372.013 354.552 370.412 354.54C369.335 354.532 368.253 354.523 367.18 354.418C364.966 354.201 362.725 354.253 360.484 354.304C359.567 354.326 358.651 354.347 357.737 354.35C356.385 354.354 354.705 355.91 354.609 357.235C354.581 357.609 354.602 358.02 354.623 358.43V358.43V358.43V358.431V358.431V358.432V358.432V358.433V358.433V358.433V358.434V358.434V358.435V358.435V358.435V358.436V358.436V358.437C354.667 359.303 354.71 360.165 354.306 360.676C353.283 361.97 353.422 363.362 353.562 364.76C353.677 365.907 353.792 367.057 353.266 368.162C352.745 369.255 352.811 370.569 352.877 371.883C352.909 372.524 352.941 373.164 352.905 373.78C352.844 374.814 352.751 375.849 352.658 376.884C352.476 378.912 352.294 380.942 352.352 382.979C352.36 383.255 352.433 383.533 352.505 383.81L352.505 383.811C352.596 384.16 352.686 384.506 352.645 384.839C352.469 386.266 352.254 387.687 352.039 389.109L352.038 389.11C351.859 390.297 351.679 391.484 351.522 392.674C351.408 393.53 351.414 394.387 351.419 395.248V395.248C351.426 396.351 351.433 397.462 351.19 398.591C350.909 399.899 350.904 401.254 350.898 402.62C350.893 403.651 350.889 404.69 350.766 405.72C350.608 407.046 350.634 408.385 350.661 409.728V409.728C350.696 411.54 350.731 413.36 350.316 415.172C350.06 416.292 349.992 417.454 349.923 418.618C349.879 419.364 349.836 420.111 349.742 420.849C349.707 421.121 349.534 421.426 349.373 421.71L349.372 421.71C349.18 422.047 349.006 422.353 349.107 422.534C349.429 423.109 350.188 423.55 350.856 423.797C352.675 424.469 355.125 423.585 355.228 422.292C355.274 421.715 355.341 421.135 355.407 420.553L355.407 420.551L355.408 420.549C355.582 419.028 355.756 417.503 355.57 416.026C355.396 414.651 355.709 413.375 356.02 412.106L356.02 412.106C356.284 411.03 356.547 409.96 356.51 408.84C356.499 408.496 356.916 407.841 357.156 407.831C360.261 407.698 363.37 407.621 366.479 407.604C367.587 407.597 368.695 407.629 369.803 407.661C371.02 407.696 372.238 407.731 373.455 407.715C374.732 407.699 376.009 407.645 377.287 407.59C379.348 407.503 381.409 407.415 383.466 407.488C384.757 407.533 386.039 407.794 387.322 408.055C388.217 408.237 389.112 408.419 390.013 408.529C390.571 408.597 391.132 408.61 391.693 408.623C392.605 408.644 393.522 408.664 394.439 408.922C394.978 409.073 395.563 409.055 396.15 409.036C396.694 409.019 397.24 409.001 397.752 409.12C398.59 409.313 399.404 409.608 400.219 409.904L400.22 409.904C400.919 410.158 401.618 410.411 402.334 410.601C403.151 410.818 403.996 410.931 404.841 411.044C405.267 411.101 405.692 411.158 406.115 411.228C406.49 411.291 406.883 411.401 407.275 411.512C408.124 411.751 408.97 411.99 409.628 411.735C410.925 411.235 412.196 410.112 412.952 408.922C413.72 407.712 414.033 406.171 414.329 404.713L414.373 404.497C414.464 404.052 414.415 403.556 414.368 403.069C414.305 402.431 414.244 401.809 414.499 401.341C415.27 399.924 415.473 398.413 415.675 396.906C415.774 396.166 415.874 395.426 416.04 394.699C416.12 394.352 416.078 393.945 416.038 393.55C415.985 393.027 415.934 392.525 416.168 392.214C417.215 390.825 417.366 389.239 417.516 387.651L417.516 387.65C417.611 386.651 417.706 385.65 418.025 384.698C418.465 383.384 418.717 381.968 418.97 380.552L418.97 380.551C419.079 379.937 419.189 379.323 419.314 378.717C419.792 376.397 420.047 374.03 420.311 371.585L420.311 371.584ZM412.717 396.271C412.436 397.714 412.156 399.148 411.516 400.488C411.483 400.791 411.462 401.07 411.442 401.327L411.442 401.329V401.33C411.39 402.023 411.349 402.562 411.12 403.004C410.764 403.692 410.718 404.49 410.672 405.286C410.596 406.586 410.52 407.881 409.099 408.683C409.038 408.717 408.975 408.753 408.911 408.791C408.458 409.053 407.936 409.355 407.534 409.267C407.125 409.176 406.741 408.961 406.359 408.747C405.957 408.522 405.557 408.298 405.129 408.217C404.373 408.076 403.601 408.016 402.83 407.957C401.945 407.888 401.061 407.819 400.204 407.628C399.473 407.465 398.771 407.171 398.069 406.877C397.355 406.578 396.641 406.28 395.897 406.119C394.949 405.913 393.973 405.842 392.996 405.77C392.236 405.715 391.475 405.659 390.726 405.54C384.31 404.523 377.869 404.676 371.427 404.829C367.567 404.92 363.707 405.012 359.852 404.852C358.517 404.796 357.395 404.723 357.298 403.018C357.263 402.405 357.153 401.764 357.043 401.124C356.818 399.807 356.593 398.496 357.027 397.456C357.943 395.263 357.834 393.097 357.726 390.941C357.681 390.035 357.636 389.131 357.666 388.228C357.956 379.721 358.032 371.204 358.099 362.691C358.1 362.566 358.1 362.442 358.1 362.319V362.319C358.103 360.926 358.106 359.634 359.132 358.474C359.723 357.807 360.244 357.557 361.157 357.623C362.23 357.701 363.307 357.716 364.385 357.731C365.606 357.748 366.827 357.765 368.04 357.872C369.256 357.98 370.466 358.17 371.675 358.36C372.948 358.56 374.22 358.76 375.501 358.864C376.323 358.93 377.175 358.87 378.022 358.811H378.022H378.022H378.023H378.023H378.023H378.023H378.024H378.024H378.024H378.025H378.025H378.025H378.025H378.026H378.026H378.026H378.026H378.027C379.343 358.718 380.647 358.626 381.805 359.011C384.148 359.791 386.513 359.848 388.872 359.904C390.096 359.934 391.317 359.963 392.534 360.093C393.479 360.194 394.473 360.119 395.458 360.044C396.94 359.932 398.401 359.821 399.644 360.314C401.689 361.125 403.731 361.141 405.745 361.155C406.543 361.161 407.337 361.167 408.124 361.223C411.444 361.457 414.327 362.404 416.167 364.835C417.236 366.246 418.266 368.583 416.92 370.778C416.803 370.971 416.833 371.25 416.865 371.534C416.882 371.694 416.9 371.855 416.892 372.003C416.852 372.708 416.86 373.432 416.868 374.156C416.886 375.817 416.904 377.479 416.346 378.916C415.81 380.296 415.554 381.714 415.298 383.127L415.298 383.127C415.084 384.312 414.87 385.495 414.492 386.65C414.228 387.456 414.233 388.364 414.239 389.264C414.245 390.283 414.252 391.293 413.868 392.138C413.264 393.47 412.99 394.874 412.717 396.271ZM353.319 405.197C353.264 405.141 353.208 405.085 353.167 405.04C353.933 405.117 354.799 405.273 354.982 405.713C355.182 406.194 355.152 406.769 355.123 407.344C355.11 407.589 355.098 407.833 355.103 408.07C355.045 408.07 354.98 408.079 354.914 408.087C354.771 408.105 354.627 408.123 354.564 408.061C354.475 407.972 354.412 407.838 354.351 407.709L354.351 407.709C354.273 407.542 354.198 407.384 354.076 407.34C352.648 406.829 352.61 406.736 353.542 405.459C353.558 405.437 353.438 405.317 353.319 405.197L353.319 405.197ZM510.59 561.526L510.591 561.527C511.087 561.781 511.577 562.031 512.07 562.275C512.44 562.459 512.828 562.615 513.214 562.77L513.215 562.77C513.853 563.026 514.488 563.28 515.037 563.662C515.717 564.131 516.287 564.763 516.854 565.392L516.939 565.486L517.003 565.557L517.08 565.642C517.123 565.689 517.167 565.737 517.211 565.784C517.248 565.825 517.285 565.865 517.322 565.905L517.392 565.979C517.474 566.07 517.417 566.484 517.35 566.504C517.189 566.553 517.019 566.618 516.847 566.684C516.374 566.865 515.886 567.052 515.525 566.918C514.93 566.695 514.318 566.516 513.705 566.336C511.885 565.802 510.066 565.268 508.71 563.599C507.609 562.242 506.086 561.117 504.543 560.272C503.847 559.896 502.577 560.45 502.291 561.605C501.569 564.514 493.658 576.055 481.815 576.055C469.973 576.055 451.341 574.835 446.388 568.889C439.429 560.534 442.11 544.578 442.368 543.043L442.382 542.958C442.465 542.437 442.08 541.779 441.753 541.29C441.653 541.141 440.947 541.228 440.649 541.414C439.736 541.991 438.848 542.605 437.96 543.22L437.96 543.22L437.959 543.22L437.959 543.22L437.959 543.221L437.95 543.226L437.908 543.256C437.774 543.348 437.64 543.441 437.506 543.533C437.296 543.679 437.085 543.824 436.873 543.968C436.662 544.111 436.451 544.257 436.241 544.403L436.118 544.489L435.947 544.608L435.661 544.808L435.649 544.816C434.544 545.59 433.438 546.365 432.262 547.009C431.902 547.207 431.307 547.014 430.752 546.834L430.752 546.833C430.587 546.78 430.425 546.727 430.274 546.687C429.959 546.598 429.662 546.445 429.365 546.292C429.23 546.223 429.096 546.154 428.959 546.091C429.202 545.875 429.438 545.649 429.674 545.423L429.674 545.423L429.675 545.423L429.675 545.422L429.675 545.422L429.676 545.422L429.676 545.422C430.199 544.922 430.722 544.422 431.315 544.026C432.119 543.492 432.962 543.015 433.805 542.537L433.806 542.537C434.42 542.189 435.034 541.842 435.633 541.472C437.185 540.512 438.714 539.511 440.225 538.489C440.408 538.365 440.594 538.243 440.781 538.12L440.782 538.12L440.783 538.119L440.783 538.118C441.556 537.611 442.338 537.098 442.941 536.432C445.503 533.602 448.383 531.201 451.371 528.814C452.76 527.707 454.282 526.948 455.796 526.192C456.858 525.662 457.917 525.134 458.923 524.489C459.63 524.038 460.524 523.888 461.422 523.738L461.422 523.738C461.916 523.655 462.412 523.572 462.879 523.438C463.781 523.179 464.675 522.893 465.569 522.607L465.569 522.607C466.233 522.395 466.897 522.182 467.563 521.981C467.753 521.926 467.964 521.933 468.171 521.94C468.24 521.942 468.308 521.944 468.375 521.944C469.199 521.944 470.025 521.922 470.852 521.9C472.794 521.848 474.734 521.796 476.639 522.031C477.832 522.18 478.973 522.738 480.114 523.297L480.116 523.298C480.628 523.548 481.14 523.799 481.658 524.013C481.631 524.059 481.606 524.115 481.582 524.171C481.534 524.283 481.486 524.393 481.414 524.415C478.666 525.176 475.985 525.627 473.171 524.332C472.302 523.932 471.14 524.078 470.053 524.214C469.836 524.242 469.622 524.268 469.413 524.291C468.4 524.399 467.4 524.647 466.405 524.895C466.181 524.951 465.958 525.006 465.734 525.06C465.603 525.092 465.471 525.122 465.338 525.152C465.262 525.169 465.185 525.186 465.109 525.203C464.339 525.374 463.563 525.547 462.867 525.876C460.351 527.059 457.859 528.313 455.41 529.637C454.598 530.075 453.822 530.576 453.046 531.077L453.046 531.077L453.046 531.077L453.045 531.077L453.045 531.078L453.045 531.078L453.044 531.078L453.044 531.078L453.044 531.078L453.044 531.079L453.043 531.079L453.043 531.079L453.043 531.079L453.042 531.079L453.042 531.079C452.339 531.533 451.636 531.987 450.907 532.393C450.505 532.618 450.071 532.793 449.638 532.967L449.637 532.967C448.514 533.42 447.394 533.871 446.848 535.182C446.805 535.283 446.676 535.349 446.549 535.415C446.521 535.43 446.493 535.444 446.467 535.458C446.439 535.474 446.413 535.489 446.388 535.505C446.675 535.513 446.967 535.541 447.259 535.569C447.914 535.632 448.568 535.695 449.161 535.526C450.161 535.245 451.112 534.789 452.063 534.334C452.177 534.279 452.292 534.224 452.406 534.17L452.511 534.12C452.686 534.037 452.862 533.955 453.038 533.875C453.51 533.661 453.976 533.43 454.441 533.198C455.345 532.75 456.248 532.302 457.193 531.979C457.754 531.789 458.362 531.751 458.974 531.714H458.974C459.41 531.687 459.848 531.661 460.272 531.578C461.061 531.427 461.841 531.217 462.621 531.007L462.621 531.007L462.622 531.007L462.622 531.007L462.623 531.007L462.623 531.007C463.017 530.901 463.411 530.795 463.806 530.697C463.996 530.651 464.203 530.639 464.402 530.639C465.246 530.637 466.101 530.68 466.956 530.723C469.002 530.825 471.047 530.927 472.935 530.428C473.698 530.227 474.382 530.292 475.053 530.356C475.601 530.409 476.141 530.46 476.709 530.365C477.799 530.184 479.035 530.691 480.214 531.173L480.421 531.258C480.501 531.291 480.579 531.323 480.658 531.354C480.732 531.384 480.807 531.413 480.88 531.442C480.93 531.461 480.98 531.481 481.029 531.499C482.32 531.988 483.678 532.513 484.741 533.353C485.989 534.345 487.131 535.468 488.272 536.591L488.273 536.591C488.755 537.066 489.237 537.54 489.728 538.005C489.636 538.1 489.532 538.227 489.427 538.354C489.203 538.628 488.978 538.901 488.879 538.861C488.404 538.671 458.94 534.993 447.431 541.29C443.256 543.575 447.098 560.165 447.419 561.553L447.431 561.605C449.161 569.112 476.133 573.439 486.395 571.723C498.749 569.657 499.49 556.744 499.73 552.556C499.772 551.821 499.799 551.355 499.87 551.263C500.533 550.415 501.588 549.96 502.527 550.746C502.974 551.119 503.272 551.843 503.347 552.439C503.416 553.003 503.593 553.541 503.764 554.063L503.765 554.064C503.901 554.479 504.035 554.884 504.108 555.286C504.337 556.553 505.154 557.349 505.978 558.152C506.555 558.715 507.137 559.281 507.522 560.016C508.616 560.517 509.615 561.028 510.59 561.526ZM207.763 482.702L207.763 482.702C207.376 482.615 206.99 482.529 206.732 482.673C205.832 483.175 167.57 500.294 140.855 485.648C140.528 485.468 140.057 485.225 139.494 484.934C136.15 483.205 129.524 479.78 129.921 477.839C131.002 472.554 146.121 465.291 148.087 464.347C148.215 464.286 148.287 464.251 148.296 464.245C148.211 464.111 148.134 463.951 148.056 463.792C147.885 463.438 147.714 463.085 147.46 463.01C146.73 462.793 145.877 462.765 145.123 462.909C144.242 463.077 134.654 465.213 132.974 466.279C131.208 467.398 126.376 473.287 126.464 475.187C126.503 475.998 126.232 476.823 125.96 477.651C125.818 478.085 125.675 478.521 125.575 478.956C125.517 479.211 125.506 479.489 125.495 479.765C125.477 480.201 125.459 480.631 125.256 480.951C125.035 481.3 124.774 481.861 124.457 482.54C123.836 483.874 123 485.666 121.833 487.215C120.958 488.377 119.768 489.353 118.864 490.095L118.864 490.095L118.863 490.096C118.323 490.539 117.885 490.899 117.676 491.164C117.551 491.324 117.386 491.484 117.216 491.647C116.749 492.099 116.254 492.578 116.494 493.151C116.818 493.924 117.96 493.545 118.573 493.341L118.586 493.337C119.48 493.043 120.33 492.472 121.06 491.855C122.083 490.99 123.047 490.034 123.909 489.012C124.793 487.961 125.655 486.852 126.287 485.648C126.984 484.311 128.526 483.758 129.921 484.717C169.15 511.693 206.166 485.979 207.895 484.444C208.132 484.234 208.174 483.805 208.216 483.375C208.235 483.177 208.255 482.978 208.293 482.801C208.125 482.784 207.944 482.743 207.763 482.702ZM384.928 331.069C384.155 331.844 383.385 332.605 382.62 333.36L382.62 333.36C380.697 335.258 378.812 337.119 377.032 339.074C376.406 339.762 376.015 340.665 375.625 341.567C375.457 341.957 375.288 342.346 375.101 342.717C374.093 344.717 372.605 345.468 369.988 346.603C368.475 347.259 366.891 347.886 365.492 347.612C364.51 347.42 363.523 347.434 362.551 347.449C361.473 347.465 360.413 347.481 359.395 347.214C358.156 346.889 356.799 345.824 356.174 344.71C355.634 343.745 356.239 342.493 357.317 341.456C358.507 340.311 359.532 338.998 360.558 337.684L360.558 337.683C361.151 336.924 361.744 336.164 362.369 335.435C363.038 334.658 363.7 333.874 364.363 333.09L364.368 333.084C366.563 330.488 368.759 327.89 371.161 325.5C373.146 323.525 375.616 322.252 378.527 321.433C381.175 320.688 383.199 320.872 385.567 321.885C386.45 322.263 387.469 322.316 388.49 322.37L388.491 322.37C388.989 322.396 389.488 322.423 389.972 322.487C391.516 322.691 392.43 324.145 391.436 324.853C390.558 325.479 388.918 326.095 388.184 325.688C384.152 323.452 380.133 323.98 376.185 325.481C375.133 325.881 374.261 326.797 373.406 327.695C373.132 327.982 372.86 328.268 372.585 328.534C370.472 330.577 368.366 332.631 366.361 334.779C365.586 335.61 364.921 336.546 364.258 337.482C364.012 337.828 363.766 338.174 363.515 338.515C363.348 338.741 363.181 338.968 363.013 339.194C362.168 340.335 361.322 341.477 360.535 342.657C359.95 343.535 360.026 343.702 360.942 343.993C363.226 344.721 365.456 344.578 367.727 343.752C370.5 342.743 372.096 340.628 373.752 338.432L373.756 338.427C373.957 338.16 374.16 337.892 374.365 337.625C375.716 335.866 377.355 334.328 378.994 332.79L378.994 332.79L378.994 332.789C379.709 332.119 380.424 331.448 381.115 330.759C381.236 330.639 381.36 330.521 381.485 330.403C381.707 330.194 381.928 329.985 382.131 329.758C383.136 328.629 384.15 327.543 385.859 327.634C385.938 327.639 386.015 327.541 386.098 327.437C386.162 327.357 386.229 327.273 386.302 327.226C386.41 327.156 386.541 327.12 386.671 327.084L386.671 327.084C386.728 327.069 386.785 327.053 386.841 327.034C386.832 327.092 386.828 327.151 386.824 327.21L386.824 327.211C386.815 327.341 386.806 327.471 386.753 327.579C386.189 328.713 385.607 329.838 384.928 331.069ZM400.135 314.995C402.983 312.302 405.85 309.591 407.791 305.93C407.323 305.773 406.851 305.738 406.383 305.702C406.162 305.686 405.942 305.669 405.724 305.64C405.36 305.591 404.993 305.499 404.628 305.407C403.988 305.247 403.353 305.087 402.745 305.165C401.618 305.31 400.454 305.771 399.476 306.372C398.042 307.253 396.516 307.954 394.987 308.656C392.731 309.692 390.469 310.731 388.485 312.356C387.94 312.802 387.672 313.301 387.417 313.777C387.211 314.16 387.013 314.528 386.686 314.842C386.849 314.874 387.012 314.904 387.175 314.934L387.176 314.934C387.538 314.999 387.9 315.065 388.254 315.159C389.098 315.384 389.94 315.618 390.781 315.851C391.498 316.05 392.214 316.249 392.931 316.442C393.124 316.494 393.317 316.55 393.51 316.605C394.129 316.783 394.748 316.961 395.379 317.029C395.549 317.047 395.734 317.072 395.924 317.099C396.752 317.213 397.695 317.343 398.079 316.966C398.754 316.301 399.444 315.648 400.135 314.995ZM400.256 309.003C400.286 309.015 400.315 309.025 400.342 309.033C400.807 308.689 401.483 308.598 401.684 308.866C401.951 309.221 402.084 310.144 401.866 310.321C400.454 311.469 398.983 312.567 397.42 313.492C396.82 313.847 395.923 313.793 395.173 313.742C394.94 313.726 394.491 313.005 394.581 312.791C394.616 312.707 394.653 312.617 394.691 312.524L394.692 312.522L394.694 312.516C395.001 311.765 395.397 310.795 395.859 310.735C397.289 310.55 398.354 309.833 399.449 309.096C399.555 309.024 399.662 308.952 399.77 308.881C399.844 308.831 399.993 308.894 400.143 308.957L400.196 308.979C400.216 308.988 400.236 308.996 400.256 309.003ZM466.45 446.318C462.016 445.792 457.633 445.792 453.263 445.792H453.259C451.913 445.791 450.568 445.791 449.223 445.776C448.395 445.766 447.452 445.598 446.786 445.163C446.388 444.906 446.235 443.941 446.347 443.369C446.421 443.005 447.187 442.523 447.634 442.532C448.495 442.549 449.948 442.48 451.699 442.397C455.861 442.2 461.703 441.924 465.248 442.532C473.386 443.927 477.603 449.122 477.359 449.1C476.982 449.067 476.599 449.05 476.216 449.033C475.241 448.991 474.262 448.948 473.386 448.63C472.712 448.385 472.056 448.091 471.397 447.795C469.85 447.101 468.287 446.4 466.45 446.318ZM420.062 299.688C421.638 299.061 421.701 298.129 420.206 297.239C419.779 297.357 419.401 297.49 419.045 297.616C418.633 297.762 418.251 297.897 417.858 297.984C417.007 298.173 416.151 298.343 415.295 298.513L415.294 298.513C413.995 298.771 412.696 299.028 411.414 299.355C410.957 299.471 410.294 300.228 410.35 300.596C410.448 301.238 410.879 301.845 411.284 302.415C411.327 302.476 411.37 302.536 411.412 302.595C411.487 302.701 412.033 302.541 412.325 302.417C412.694 302.261 413.057 302.086 413.419 301.912C414.004 301.631 414.59 301.349 415.201 301.144C415.881 300.916 416.576 300.732 417.271 300.548C418.216 300.297 419.16 300.047 420.062 299.688ZM424.758 294.756C424.781 293.436 424.789 293.435 426.693 293.111L426.89 293.077C427.293 293.008 427.678 292.841 428.064 292.673C428.382 292.535 428.701 292.396 429.031 292.312C429.199 292.269 429.724 292.778 429.684 292.916C429.659 293.001 429.633 293.093 429.606 293.189C429.432 293.813 429.211 294.605 428.875 294.675C428.502 294.753 428.129 294.942 427.755 295.132C426.792 295.62 425.813 296.115 424.758 294.756ZM435.785 289.732C435.94 289.714 436.094 289.697 436.241 289.687C437.389 289.479 437.421 288.763 437.451 288.069C437.464 287.763 437.477 287.461 437.586 287.209C437.418 287.24 437.246 287.263 437.075 287.287L437.075 287.287L437.074 287.287L437.074 287.287L437.074 287.287C436.687 287.34 436.3 287.394 435.944 287.529C435.869 287.557 435.789 287.586 435.706 287.617C435.141 287.823 434.449 288.076 434.34 288.453C433.909 289.943 434.858 289.836 435.785 289.732ZM448.9 284.797L448.831 284.828C448.488 284.985 448.193 285.119 447.936 285.066C447.573 284.989 447.228 284.822 446.882 284.656C446.736 284.585 446.59 284.515 446.442 284.451C446.527 284.426 446.612 284.401 446.696 284.375C446.81 284.341 446.924 284.305 447.038 284.27L447.042 284.268L447.043 284.268L447.043 284.268L447.044 284.268C447.503 284.125 447.963 283.982 448.433 283.887C449.124 283.748 449.285 283.945 449.07 284.721C449.012 284.746 448.955 284.772 448.9 284.797ZM517.579 229.067L517.579 229.068C517.671 229.438 517.764 229.816 517.868 230.2C517.978 230.575 518.103 230.885 518.217 231.169C518.312 231.404 518.4 231.622 518.468 231.847C519.287 234.558 519.622 237.324 519.56 240.165C519.546 240.784 519.695 241.405 519.844 242.027C519.958 242.501 520.072 242.976 520.115 243.454C520.168 244.045 520.155 244.656 520.143 245.265C520.12 246.348 520.097 247.424 520.45 248.366C521.003 249.851 520.872 251.281 520.745 252.673C520.721 252.938 520.697 253.201 520.677 253.463C520.508 255.719 519.639 257.672 517.255 258.934C516.572 259.295 515.89 259.394 515.217 259.492C514.618 259.578 514.027 259.664 513.448 259.933C512.659 260.301 511.803 260.427 510.933 260.555C509.829 260.718 508.702 260.884 507.663 261.552C507.052 261.945 506.238 262.015 505.421 262.086C504.633 262.154 503.842 262.222 503.227 262.58C501.832 263.388 500.855 263.311 499.722 262.474C499.203 262.091 498.693 261.695 498.182 261.298L498.182 261.298C497.712 260.932 497.241 260.567 496.763 260.211C496.204 259.795 495.629 259.396 495.033 259.036C494.4 258.653 493.632 258.446 492.909 258.251C492.228 258.068 491.587 257.896 491.139 257.597C489.901 256.773 488.904 257.085 487.931 257.39C487.473 257.534 487.02 257.676 486.55 257.697C486.171 257.714 485.816 258.288 485.461 258.861C485.301 259.122 485.14 259.381 484.977 259.589C485.228 259.717 485.491 259.891 485.754 260.065C486.335 260.45 486.916 260.835 487.369 260.72C487.505 260.685 487.638 260.649 487.769 260.614C488.79 260.338 489.676 260.099 490.729 260.792C491.204 261.104 491.747 261.31 492.292 261.517C492.778 261.701 493.265 261.885 493.705 262.146C493.856 262.236 494.008 262.325 494.16 262.415C495.366 263.124 496.601 263.85 497.545 264.831C499.014 266.354 500.599 266.913 502.709 266.281C504.184 265.84 505.673 265.448 507.164 265.056C508.313 264.754 509.463 264.451 510.605 264.126C511.218 263.951 511.835 263.792 512.451 263.632C515.078 262.952 517.691 262.275 519.957 260.456C523.425 257.666 523.537 253.885 523.115 250.183C523.039 249.524 522.951 248.866 522.863 248.206L522.862 248.202L522.862 248.199C522.667 246.739 522.471 245.274 522.403 243.791C522.35 242.61 522.381 241.423 522.412 240.236V240.236V240.236V240.235V240.235V240.235V240.235V240.234V240.234V240.234C522.49 237.294 522.568 234.352 521.356 231.493C521.002 230.656 520.803 229.754 520.603 228.852C520.411 227.982 520.218 227.112 519.887 226.298C519.287 224.816 518.348 223.443 517.408 222.132L517.294 221.973C516.669 221.099 515.876 219.99 515.054 219.89C514.341 219.803 513.566 220.232 512.79 220.661L512.79 220.661C512.453 220.848 512.116 221.034 511.784 221.179C511.957 221.293 512.131 221.406 512.304 221.52L512.305 221.521L512.306 221.521C512.718 221.791 513.13 222.061 513.535 222.342C513.754 222.497 513.965 222.683 514.139 222.889C514.377 223.17 514.632 223.443 514.886 223.717L514.886 223.717L514.886 223.717C515.506 224.383 516.127 225.051 516.523 225.831C517.02 226.806 517.289 227.897 517.579 229.067ZM483.434 268.823L483.417 268.789C483.277 268.729 483.136 268.717 483.039 268.708C482.97 268.702 482.923 268.698 482.916 268.68C482.767 268.265 482.64 267.842 482.512 267.419L482.512 267.419C482.48 267.313 482.448 267.208 482.416 267.102C482.358 267.292 482.281 267.484 482.205 267.676C482.036 268.102 481.867 268.527 481.898 268.938C482.109 271.755 482.366 274.48 483.748 277.157C484.37 278.361 484.609 279.753 484.85 281.152C485.053 282.333 485.257 283.519 485.693 284.602C485.749 284.743 485.806 284.883 485.862 285.023L485.862 285.024C486.655 286.997 487.442 288.955 487.828 291.04C487.973 291.822 487.803 292.739 487.53 293.505C487.211 294.399 486.566 295.116 485.92 295.835C484.944 296.921 483.965 298.012 484.091 299.724C484.103 299.878 483.958 300.044 483.813 300.21C483.776 300.253 483.738 300.297 483.702 300.34C483.674 300.375 483.647 300.41 483.624 300.445C483.724 300.408 483.828 300.375 483.932 300.343C484.173 300.268 484.414 300.193 484.605 300.052C484.721 299.969 484.791 299.824 484.861 299.68C484.928 299.542 484.994 299.405 485.101 299.319C485.408 299.076 485.717 298.84 486.024 298.606L486.025 298.605C487.857 297.209 489.617 295.867 490.44 293.243C491.16 290.948 490.911 289.161 490.113 287.263C489.66 286.191 489.109 285.146 488.559 284.102C487.575 282.235 486.595 280.375 486.194 278.391C485.664 275.761 485.047 273.19 484.245 270.646C484.057 270.055 483.774 269.495 483.434 268.823ZM540.704 355.051L540.703 355.051L540.702 355.051C540.282 354.953 539.87 354.856 539.457 354.764C539.194 354.706 538.932 354.646 538.67 354.586L538.669 354.586C537.596 354.341 536.522 354.096 535.434 353.934C534.846 353.846 534.247 353.828 533.647 353.811C533.205 353.798 532.762 353.785 532.322 353.743C531.66 353.681 530.961 353.613 530.365 353.355C529.833 353.126 529.343 352.803 528.854 352.479C528.78 352.43 528.706 352.381 528.632 352.333C528.574 352.295 528.516 352.257 528.457 352.219C528.378 352.168 528.298 352.117 528.217 352.068C528.344 352.062 528.47 352.058 528.597 352.054C528.748 352.049 528.899 352.045 529.05 352.042C529.698 352.025 530.346 352.008 530.986 351.933C531.301 351.896 531.613 351.803 531.925 351.711C532.337 351.589 532.748 351.467 533.158 351.477L533.596 351.488C536.38 351.556 539.171 351.624 541.94 351.902C543.736 352.082 545.516 352.465 547.291 352.847C547.712 352.938 548.132 353.028 548.552 353.116C550.111 353.441 551.656 353.83 553.2 354.22L553.721 354.351C555.095 354.696 556.46 355.065 557.827 355.435L557.832 355.437L558.406 355.592C558.603 355.645 558.793 355.721 558.983 355.796C559.072 355.831 559.16 355.867 559.25 355.9C559.18 355.997 559.109 356.12 559.039 356.244L559.038 356.245C558.884 356.516 558.729 356.789 558.575 356.788C557.839 356.783 557.103 356.916 556.365 357.05C554.827 357.328 553.283 357.608 551.722 356.637C551.444 356.464 551.122 356.499 550.756 356.539C550.289 356.59 549.749 356.65 549.128 356.299C548.025 355.677 546.581 355.665 545.066 355.652C544.42 355.647 543.761 355.641 543.111 355.588C542.242 355.411 541.459 355.228 540.704 355.051ZM216.56 425.717C239.935 422.78 259.425 420.331 259.376 419.696C259.373 419.657 259.405 419.552 259.452 419.4C259.754 418.411 260.668 415.418 256.636 415.367C239.334 415.148 189.101 421.041 141.895 431.16C74.9168 444.893 36.3292 464.033 36.7872 465.335C36.9955 465.927 53.6499 461.043 74.0897 455.048L74.0902 455.048C98.6178 447.854 128.596 439.061 142.149 436.215L143.658 435.901C156.583 433.253 189.227 429.151 216.56 425.717ZM159.531 467.15C163.78 467.15 169.913 467.611 177.76 470.272L179.73 470.946C181.23 471.464 184.018 472.229 188.058 473.227C188.996 473.459 189.569 474.407 189.337 475.346C189.105 476.284 177.138 473.757 177.138 473.757C169.048 471 165.819 470.246 162.038 470.412C158.357 470.574 150.58 473.431 144.673 475.6L144.673 475.6C140.502 477.132 137.264 478.322 137.061 477.978C136.568 477.146 137.151 476.09 137.675 475.58C142.976 470.412 145.913 468.953 159.531 467.15ZM448.274 437.066C448.56 436.816 448.778 436.481 448.885 436.086C449.175 435.02 440.922 433.418 435.365 435.495C434.237 435.916 433.238 436.571 432.144 437.527C431.96 437.687 431.554 438.246 431.051 438.939C430.226 440.074 429.141 441.568 428.351 442.247C427.08 443.34 424.923 444.504 423.444 445.25C422.844 445.551 420.568 446.055 418.002 446.623C413.89 447.533 409.036 448.608 409.146 449.279C409.325 450.369 411.332 450.204 412.422 450.025C414.316 449.715 415.951 449.477 417.373 449.271L417.376 449.27L417.378 449.27L417.378 449.27L417.378 449.27C421.02 448.741 423.269 448.414 424.915 447.585C426.703 446.685 428.248 445.622 429.753 444.328C429.992 444.122 430.33 443.813 430.709 443.457L431.917 442.31C431.728 443.845 432.243 445.323 433.543 446.372L434.037 446.766C449.532 459.018 466.292 460.873 483.979 452.314L484.255 452.179L484.385 452.882C484.844 455.216 485.501 457.16 486.369 458.72C487.656 461.03 489.851 463.298 492.941 465.566L495.308 462.341L494.914 462.048C492.465 460.2 490.786 458.43 489.864 456.774C488.887 455.02 488.199 452.389 487.844 448.9L487.54 445.91L484.899 447.345L484.374 447.628C467.067 456.834 451.092 455.384 436.054 443.258C435.966 443.187 435.875 441.981 436.054 441.46C436.368 440.543 437.086 438.71 438.929 438.077C440.131 437.663 448.274 437.066 448.274 437.066ZM573.407 331.82L572.575 330.315C571.949 329.194 571.138 327.756 570.737 327.095L570.606 326.886C568.973 324.357 568.675 321.152 569.094 315.962L569.268 314.044L569.428 312.374C569.899 307.232 569.78 305.273 568.839 304.26L568.696 304.114C567.759 303.21 566.664 303.221 562.711 304.099L561.746 304.317C557.179 305.364 554.159 305.619 550.668 304.788L547.649 304.038C547.243 303.939 546.839 303.84 546.467 303.749C546.132 303.668 545.823 303.592 545.563 303.529C545.147 303.427 544.856 303.357 544.784 303.339L543.967 303.13C536.768 301.244 533.738 299.218 532.605 294.311C532.334 293.14 532.445 291.929 532.87 290.418L532.967 290.09C533.242 289.179 534.583 285.564 534.583 285.566C534.885 284.709 535.139 283.927 535.365 283.141L535.654 282.12C535.898 281.248 536.15 280.321 536.412 279.329L539.145 268.632C539.636 266.746 540.054 265.181 540.224 264.654L541.001 262.373L541.327 261.449C541.54 260.858 541.745 260.314 541.957 259.784C543.665 255.505 545.478 252.863 548.033 252.134C550.388 251.461 552.122 251.553 554.019 252.31C554.414 252.468 555.442 252.957 556.22 253.329C556.639 253.528 556.986 253.694 557.124 253.755C559.025 254.596 560.973 255.13 563.613 255.395L564.116 255.442C565.389 255.55 566.436 255.411 569.542 254.731L571.771 254.238C574.139 253.724 575.691 253.469 577.391 253.364C578.932 253.268 580.367 253.335 581.732 253.593C583.981 254.018 587.429 255.418 592.164 257.802C592.904 258.175 593.202 259.077 592.829 259.817C592.457 260.557 591.555 260.854 590.815 260.482L589.932 260.041C585.889 258.045 582.946 256.876 581.175 256.541C580.072 256.332 578.883 256.276 577.577 256.358C575.969 256.458 574.454 256.716 571.977 257.264L570.113 257.678C566.804 258.401 565.611 258.563 564.023 258.444L563.863 258.431C560.624 258.156 558.228 257.524 555.911 256.499L553.321 255.278C553.142 255.196 552.998 255.132 552.907 255.096C551.625 254.585 550.571 254.529 548.857 255.018C547.532 255.397 546.113 257.464 544.743 260.896C544.495 261.518 544.253 262.168 543.993 262.904L543.086 265.556C542.68 266.732 539.734 278.458 539.636 278.863L539.153 280.694C538.839 281.87 538.54 282.955 538.248 283.969C538.054 284.648 537.84 285.32 537.599 286.027L537.412 286.565C537.169 287.252 536.953 287.862 536.761 288.404C535.409 292.221 535.245 292.684 535.35 293.076C535.364 293.13 535.384 293.183 535.406 293.243C535.439 293.331 535.478 293.435 535.515 293.583L535.528 293.636C536.352 297.203 538.635 298.674 545.133 300.332L551.029 301.787C553.995 302.553 556.573 302.394 560.604 301.499L563.159 300.92C564.861 300.544 565.293 300.495 566.272 300.456C568.236 300.377 569.81 300.897 571.037 302.218C572.832 304.15 572.999 306.351 572.421 312.598L572.123 315.744L572.052 316.625C571.746 320.774 571.988 323.346 573.017 325.082L573.339 325.603C573.647 326.114 574.112 326.927 574.569 327.738L576.03 330.362L576.224 330.7C578.174 334.059 579.784 335.941 581.494 336.592L581.678 336.657C583.865 337.374 586.57 335.951 590.058 331.418L590.511 330.83C591.04 330.176 591.578 329.765 594.06 328.228L597.892 325.873L598.353 325.583C600.747 324.065 602.155 322.936 602.468 322.298C606.133 314.817 608.469 303.14 607.764 289.865C607.676 288.201 606.79 285.652 605.091 282.292L604.888 281.895L604.795 281.842C600.784 279.562 597.865 277.396 596.028 275.307L595.813 275.057C593.931 272.818 592.038 269.163 590.088 264.061C589.793 263.287 590.18 262.42 590.954 262.124C591.728 261.829 592.595 262.216 592.891 262.99C594.732 267.806 596.487 271.196 598.11 273.127C599.604 274.905 602.187 276.871 605.846 278.987L606.745 279.497L607.135 279.715L607.342 280.111C609.491 284.214 610.636 287.38 610.76 289.706C611.491 303.487 609.054 315.674 605.162 323.618C604.502 324.965 602.881 326.264 599.96 328.116L599.232 328.573L596.131 330.477C593.555 332.069 593.038 332.453 592.687 332.918C588.4 338.601 584.47 340.729 580.743 339.508C577.95 338.592 575.882 336.161 573.407 331.82ZM618.768 241.846C618.015 241.499 617.124 241.827 616.777 242.579C616.027 244.204 614.856 245.224 613.179 245.719C611.977 246.074 610.631 246.279 608.983 246.387C608.408 246.424 607.914 246.446 607.177 246.468L604.643 246.532C600.585 246.665 598.816 247.008 597.043 248.285C594.693 249.978 593.706 255.391 594.531 258.508L594.575 258.679C594.604 258.796 594.635 258.922 594.666 259.059L594.767 259.511C594.773 259.541 594.796 259.649 594.828 259.799C594.898 260.131 595.011 260.668 595.086 261.013L595.227 261.643C595.353 262.187 595.479 262.673 595.618 263.146C596.174 265.037 596.91 266.569 597.992 267.831C598.142 268.005 598.56 268.762 599.02 269.627L600.595 272.637C601.869 274.881 603.193 276.512 604.867 277.603C605.573 278.063 606.219 278.254 607.43 278.472L607.968 278.57C608.951 278.754 609.416 278.87 610.001 279.098L610.455 279.283C610.912 279.458 611.45 279.586 612.229 279.722L612.785 279.814C612.788 279.814 614.107 280.014 614.853 280.133L615.66 280.271C616.431 280.411 617.114 280.561 617.764 280.737C618.399 280.909 618.987 281.102 619.533 281.322L619.879 281.458C620.433 281.666 620.894 281.796 621.709 281.988L622.464 282.162C622.809 282.243 623.055 282.307 623.275 282.376L623.532 282.462C624.499 282.809 625.317 283.415 626.344 284.686C627.703 286.369 627.703 287.158 626.658 287.881C625.976 288.352 625.806 289.287 626.277 289.968C626.748 290.649 627.682 290.82 628.364 290.349C631.03 288.505 631.03 285.714 628.678 282.801C627.317 281.117 626.05 280.178 624.545 279.638C624.244 279.53 623.967 279.446 623.623 279.357L623.172 279.247L622.236 279.029C621.652 278.889 621.31 278.79 620.923 278.645L620.253 278.384C619.711 278.182 619.143 278.002 618.548 277.841C617.663 277.602 616.746 277.41 615.689 277.23L612.813 276.778C612.13 276.66 611.712 276.56 611.472 276.459C610.542 276.066 609.973 275.901 608.805 275.675L607.763 275.483C607.069 275.351 606.751 275.25 606.505 275.09C605.31 274.311 598.905 263.691 598.496 262.3C598.344 261.782 598.207 261.233 598.06 260.574L597.642 258.616C597.605 258.449 597.569 258.296 597.535 258.152L597.431 257.741C596.89 255.696 597.646 251.548 598.797 250.719C599.958 249.882 601.466 249.624 605.169 249.518L607.283 249.466C608.045 249.444 608.565 249.42 609.179 249.38L609.725 249.34C611.339 249.21 612.729 248.98 614.029 248.596C616.539 247.856 618.391 246.242 619.501 243.836C619.848 243.084 619.52 242.193 618.768 241.846Z" fill="#00160A"/>
<path fill-rule="evenodd" clip-rule="evenodd" d="M268.333 397.798C268.885 396.716 269.356 395.774 270.012 394.985C270.676 394.188 271.515 393.533 272.305 392.849C272.384 392.781 272.819 392.951 272.817 392.996C272.804 393.234 272.777 393.545 272.624 393.691C271.448 394.809 271.351 396.294 270.991 397.756C270.597 399.358 270.996 400.612 271.726 401.948C272.213 402.838 272.568 403.816 272.873 404.789C273.514 406.839 274.147 408.896 274.66 410.98C275.005 412.386 275.324 413.842 275.337 415.278C275.405 422.519 275.366 429.76 275.369 437.002C275.371 440.701 275.319 444.402 275.427 448.099C275.463 449.304 276.116 450.495 276.137 451.698C276.153 452.67 275.666 453.659 275.344 454.621C275.298 454.759 274.803 454.918 274.732 454.848C274.223 454.347 273.371 453.795 273.363 453.248C273.297 448.994 273.46 444.737 273.417 440.483C273.398 438.563 272.957 436.649 272.909 434.728C272.797 430.253 273.299 425.697 272.61 421.321C272.072 417.903 272.202 414.649 272.255 411.288C272.267 410.533 270.163 409.592 268.906 409.009C267.274 408.253 266.237 409.265 265.464 410.622C265.393 410.745 265.101 410.805 265.1 410.895C265.063 418.801 265.012 426.707 265.043 434.613C265.052 436.901 265.315 439.187 265.428 441.476C265.471 442.333 265.38 442.779 266.696 442.578C268.921 442.239 271.844 445.528 271.2 447.406C270.703 448.851 269.805 450.159 269.307 451.604C268.182 454.866 265.725 458.02 266.809 461.564C267.632 464.255 269.414 466.77 271.233 468.984C271.958 469.865 273.942 469.679 275.328 470.068C275.796 470.2 276.341 470.527 276.554 470.925C276.691 471.185 276.393 471.864 276.091 472.096C275.909 472.236 275.348 471.872 274.954 471.744C274.308 471.533 273.672 471.223 273.009 471.144C269.891 470.784 269.718 470.594 268.301 467.122C267.793 465.877 266.841 464.817 266.302 463.581C265.793 462.415 265.505 461.141 265.222 459.892C264.949 458.687 264.587 457.438 264.667 456.235C264.76 454.818 265.172 453.389 265.657 452.041C266.09 450.838 266.833 449.749 267.373 448.579C267.435 448.443 267.115 448.053 266.891 447.894C266.77 447.808 266.438 447.9 266.271 448.014C264.657 449.115 263.888 450.891 262.867 452.447C262.531 452.959 262.634 453.76 262.54 454.43C262.401 455.431 262.132 456.435 262.155 457.432C262.197 459.277 261.991 461.285 262.642 462.925C263.996 466.336 265.308 469.936 268.07 472.472C269.087 473.407 270.775 473.854 272.47 474.082C274.702 474.38 276.818 473.734 279.006 473.983C280.007 474.099 281.094 473.225 282.141 473.23C283.417 473.234 284.416 472.534 285.546 472.352C286.836 472.141 287.901 471.587 289.026 471.053C290.861 470.184 292.853 469.563 294.528 468.458C296.018 467.473 297.154 465.962 298.471 464.709C300.503 462.773 302.216 460.634 303.581 458.144C304.182 457.047 305.135 456.214 304.742 454.825C304.681 454.609 304.527 454.263 304.396 454.255C304.107 454.235 303.711 454.297 303.522 454.488C299.217 458.832 295.019 463.287 290.591 467.502C289.397 468.636 287.53 469.079 285.95 469.795C285.07 470.192 284.128 470.449 283.243 470.838C281.318 471.682 279.791 470.507 278.149 469.894C278.226 469.724 278.271 469.439 278.384 469.406C281.058 468.694 283.768 468.102 286.406 467.279C287.626 466.898 288.766 466.161 289.836 465.43C290.872 464.721 291.729 463.758 292.738 463.003C296.51 460.182 299.597 456.862 301.074 452.25C301.473 451.002 304.159 450.21 305.704 450.671C306.634 450.949 307.698 450.925 308.516 451.375C309.041 451.663 309.603 452.639 309.5 453.184C308.951 456.092 307.127 458.249 305.092 460.319C303.74 461.694 302.905 463.595 301.5 464.895C299.118 467.097 296.632 469.273 293.887 470.97C291.113 472.687 288.032 473.966 284.968 475.129C282.773 475.961 280.41 476.577 278.079 476.772C274.1 477.107 270.184 476.788 266.655 474.425C264.444 472.944 262.953 470.891 261.803 468.673C261.157 467.432 261.778 465.561 261.212 464.236C260.092 461.607 259.885 458.911 260.121 456.201C260.281 454.353 261.427 452.558 261.433 450.737C261.441 448.691 262.946 447.687 263.602 446.142C263.734 445.831 263.381 445.346 263.379 444.94C263.361 440.32 263.37 435.699 263.366 431.078C263.365 428.752 263.51 426.41 263.284 424.105C263.152 422.766 262.322 421.509 261.992 420.169C261.825 419.487 262.11 418.704 262.118 417.967C262.141 415.874 261.936 413.76 262.174 411.694C262.473 409.096 263.197 406.548 263.589 403.956C263.809 402.508 263.73 401.014 263.781 399.541C263.881 396.643 264.474 393.782 266.493 391.698C268.068 390.072 269.953 388.534 272.568 388.528C273.21 388.526 274.086 387.365 274.443 387.547C275.254 387.96 276.042 388.787 276.361 389.627C276.503 390 275.594 390.97 274.973 391.391C273.869 392.14 272.579 392.114 271.231 392.056C269.017 391.96 266.997 394.858 266.143 397.402C265.443 399.489 266.514 401.348 266.037 403.336C265.895 403.927 267.062 404.848 267.673 405.581C267.737 405.658 268.304 405.482 268.304 405.419C268.319 404.165 268.404 402.892 268.224 401.66C268.054 400.495 267.269 399.324 268.725 398.441C268.595 398.296 268.464 398.15 268.333 397.798Z" fill="#FFB61D"/>
<path fill-rule="evenodd" clip-rule="evenodd" d="M350.27 492.563C349.881 494.678 349.467 496.582 349.125 498.494C349.069 498.812 349.416 499.18 349.429 499.532C349.533 502.541 348.983 505.516 348.887 508.525C348.841 509.969 348.969 511.55 348.572 512.969C348.081 514.728 348.79 517.037 346.539 518.071C345.671 518.469 344.395 519.222 343.888 518.899C342.906 518.274 341.275 517.931 341.533 516.002C341.759 514.306 341.284 512.493 341.646 510.85C342.263 508.04 341.608 505.206 342.092 502.474C342.386 500.819 342.067 499.168 342.451 497.604C343.072 495.079 342.978 492.51 343.312 489.981C343.629 487.577 343.821 485.164 344.135 482.772C344.46 480.298 344.648 477.815 344.984 475.361C345.284 473.164 345.233 470.838 345.866 468.806C346.427 467.004 345.112 464.928 346.868 463.373C347.11 463.159 346.479 462.145 346.576 461.555C347.375 456.648 346.75 451.711 347 446.796C347.018 446.45 347.566 445.952 347.959 445.835C349.197 445.469 350.47 445.191 351.749 445.018C352.045 444.977 352.713 445.49 352.709 445.739C352.633 449.957 352.389 454.174 352.369 458.391C352.354 461.436 352.69 464.481 352.721 467.527C352.736 469.009 352.376 470.494 352.251 471.984C352.121 473.532 352.604 475.005 351.693 476.656C351.006 477.898 351.609 479.818 351.494 481.423C351.279 484.428 351.097 487.449 350.573 490.403C350.463 491.028 350.228 491.674 350.27 492.563ZM344.477 514.289C345.156 515.315 345.12 515.286 345.747 514.504C346.485 513.581 345.925 512.506 346.166 511.57C346.814 509.054 346.653 506.476 346.959 503.939C347.205 501.903 347.555 499.872 347.665 497.831C347.807 495.195 347.534 492.522 347.855 489.915C348.129 487.676 348.043 485.429 348.836 483.153C349.64 480.844 349.295 478.134 349.437 475.597C349.472 474.976 349.209 474.21 349.485 473.759C350.426 472.224 349.584 470.623 349.815 469.075C349.846 468.868 349.32 468.583 349.052 468.33C348.898 468.624 348.649 468.901 348.604 469.212C348.307 471.235 347.972 473.255 347.807 475.291C347.588 477.993 347.511 480.712 347.375 483.422C347.364 483.629 347.459 483.902 347.36 484.035C346.239 485.537 347.108 487.329 346.6 489.013C345.957 491.14 346.245 493.548 346.132 495.837C346.129 495.907 346.144 495.977 346.13 496.044C345.791 497.645 345.365 499.238 345.135 500.856C344.951 502.156 345.711 503.344 344.659 504.854C343.86 506.004 344.56 508.148 344.448 509.836C344.381 510.858 343.975 511.856 343.859 512.882C343.824 513.184 344.258 513.544 344.477 514.289ZM349.856 457.596C349.9 456.448 349.948 455.3 349.985 454.153C349.991 453.99 349.951 453.686 349.93 453.686C349.669 453.683 349.191 453.685 349.177 453.761C348.967 454.908 348.775 456.064 348.703 457.225C348.692 457.397 349.318 457.609 349.856 457.596Z" fill="#00160A"/>
<path fill-rule="evenodd" clip-rule="evenodd" d="M269.058 463.286C268.966 462.493 268.977 461.803 268.988 461.113C269.553 461.275 270.184 461.327 270.672 461.619C273.237 463.155 275.754 464.772 278.318 466.309C278.766 466.577 279.356 466.639 279.892 466.716C280.304 466.775 280.734 466.706 281.156 466.694C280.752 467.041 280.269 467.747 279.957 467.676C278.002 467.245 275.675 468.835 274.049 466.636C274.017 466.594 273.837 466.606 273.768 466.654C273.037 467.165 272.218 468.169 271.401 467.198C270.467 466.086 269.892 464.672 269.058 463.286Z" fill="#00160A"/>
</svg>
