<svg width="750" height="750" viewBox="0 0 750 750" fill="none" xmlns="http://www.w3.org/2000/svg">
<path d="M638.487 538.299C634.32 619.563 569.209 693.205 489.395 709.045C409.581 724.886 322.229 682.753 283.339 611.278C279.047 603.39 275.225 595.117 271.404 586.845C261.538 565.489 251.675 544.14 233.74 529.451C213.263 512.678 186.927 508.192 160.326 503.661C143.434 500.784 126.435 497.888 110.761 491.817C72.977 477.181 43.6396 442.508 35.4615 402.822C22.2087 338.511 64.187 272.85 120.167 238.531C176.146 204.211 243.413 194.652 308.662 187.287C333.621 184.47 353.896 165.66 368.377 145.136C373.983 137.191 379.027 128.841 384.067 120.499C392.046 107.291 400.015 94.0988 410.191 82.5474C453.279 33.6346 533.518 25.3808 588.401 60.552C643.283 95.7232 669.552 168.045 654.957 231.575C652.443 242.517 648.875 253.172 645.307 263.827L645.306 263.829C641.89 274.029 638.474 284.229 635.982 294.683C630.657 317.028 629.64 340.152 629.034 363.115C628.311 390.493 628.141 417.943 630.705 445.211C631.597 454.697 632.819 464.17 634.042 473.642C636.819 495.165 639.596 516.678 638.487 538.299Z" fill="#E5F4F4"/>
<path d="M308.571 167.878C338.414 153.032 362.166 127.248 377.124 97.4605C379.085 93.5549 380.943 89.4051 380.875 85.0352C380.806 80.6654 378.263 76.0368 374.036 74.927C367.978 73.3366 362.769 79.1448 358.991 84.1404C333.041 118.458 295.27 145.399 252.648 151.274C236.279 153.531 219.659 152.683 203.157 151.831L177.381 150.5C156.621 149.428 135.572 148.378 115.251 152.759C94.93 157.139 75.0737 167.675 63.9127 185.213C60.3602 190.795 57.6992 197.373 58.6822 203.917C59.6894 210.622 64.4558 216.313 70.1972 219.921C75.9385 223.528 82.6087 225.333 89.2191 226.843C94.0589 227.949 99.0022 228.928 103.954 228.58C112.051 228.01 119.398 223.984 126.547 220.066C127.024 219.805 127.499 219.545 127.974 219.286C140.469 212.469 153.416 206.415 166.92 201.917C186.613 195.358 207.319 192.148 227.975 188.946C255.801 184.632 283.535 180.333 308.571 167.878Z" fill="#E5F4F4"/>
<path d="M153.377 563.395L153.395 563.396C154.611 563.444 155.827 563.493 157.039 563.556C176.216 564.553 195.193 569.255 212.617 577.325C219.261 580.402 225.989 584.253 229.721 590.552C234.338 598.347 239.88 605.593 246.193 612.089C248.643 614.609 251.295 617.074 254.565 618.362C257.836 619.649 261.874 619.531 264.527 617.227C267.75 614.427 267.959 609.455 266.966 605.303C265.338 598.498 261.278 592.568 257.26 586.84C244.075 568.044 230.194 549.251 211.845 535.449C193.496 521.648 169.816 513.291 147.357 518.059C139.602 519.705 131.916 523.06 126.775 529.095C121.633 535.129 119.601 544.211 123.304 551.22C126.242 556.781 132.197 560.203 138.295 561.745C143.209 562.987 148.298 563.191 153.376 563.395H153.377Z" fill="#E5F4F4"/>
<path d="M672.086 280.686C666.959 278.753 661.153 281.087 656.814 284.432C648.244 291.039 643.174 301.374 640.867 311.946C638.56 322.518 638.746 333.454 638.944 344.274L640.638 437.235C640.762 444.026 641.064 451.346 645.24 456.703C646.547 458.379 648.336 459.851 650.451 460.067C653.014 460.328 655.385 458.71 657.236 456.918C667.358 447.117 668.687 431.679 669.899 417.608L669.943 417.097C671.723 396.441 674.806 375.898 679.167 355.63C680.393 349.93 681.741 344.194 684.306 338.959C692.348 322.546 690.425 301.711 679.514 287.048C677.54 284.396 675.179 281.852 672.086 280.686Z" fill="#E5F4F4"/>
<path d="M488.456 406.515C493.865 408.005 498.71 412.509 499.242 418.095C500.268 415.873 502.521 414.267 504.956 414.023L501.421 417.78L505.894 417.869L499.739 421.306C503.555 428.363 502.937 437.068 500.491 444.708C498.994 449.385 496.829 454.07 497.251 458.962C497.666 463.774 501.939 468.689 506.61 467.705L506.844 467.65C512.458 466.232 518.605 467.053 523.65 469.895C530.899 473.979 535.296 481.562 540.277 488.225C544.675 494.107 549.88 499.577 556.386 502.984C562.892 506.392 570.87 507.517 577.647 504.687C581.01 503.284 584.021 500.96 587.589 500.22C591.157 499.481 594.814 501.465 596.124 504.846C596.704 506.342 595.458 511.885 592.282 518.359C592.798 518.211 593.339 518.115 593.904 518.078C610.596 516.995 627.442 513.366 641.807 504.796C646.373 502.071 650.638 498.879 654.873 495.661L657.34 493.78L658.834 492.63C668.126 485.432 677.299 477.407 681.12 466.459L681.319 465.869L681.743 464.575C682.56 462.126 683.596 459.593 685.961 458.833C689.234 457.78 692.215 460.948 694.204 463.753L708.542 483.965C708.91 484.484 709.286 485.021 709.427 485.642C710.048 488.389 705.948 489.777 703.306 488.802C698.502 487.028 694.646 481.744 689.605 482.65C686.062 483.288 683.945 486.718 682.194 489.95L681.751 490.775C671.141 510.639 653.288 526.53 632.329 534.766C626.926 536.889 621.344 538.515 615.77 540.139L604.51 543.419L606.494 543.772C623.295 546.719 641.219 548.517 656.476 541.071C666.634 536.115 674.459 527.582 681.841 518.958L684.519 515.81L685.624 514.495C690.154 509.06 694.459 503.242 695.781 496.355C696.289 493.71 699.627 492.448 702.224 493.165C704.82 493.881 706.797 495.935 708.636 497.903L722.573 512.821C723.671 513.996 724.827 515.293 724.988 516.893C725.149 518.494 723.714 520.305 722.169 519.856L707.056 515.466C705.638 515.055 704.068 514.652 702.733 515.283C701.71 515.767 701.05 516.758 700.465 517.736L684.217 545.175C679.641 552.901 671.162 557.381 662.831 560.731C642.852 568.766 621.172 572.541 599.653 571.732C597.316 571.644 594.976 571.503 592.666 571.138C583.986 569.771 576.146 565.357 568.555 560.892C569.887 565.76 568.701 569.866 560.796 570.178C553.794 570.454 536.645 541.626 531.311 540.131C502.2 531.968 497.42 515.853 488.068 504.846C488.068 504.846 469.168 507.289 456.69 504.687C427.44 498.589 407.783 479.83 400.696 478.636C393.609 477.442 388.936 481.984 386.748 479.229L386.748 477.232C387.086 476.684 390.473 473.519 400.133 475.575C413.623 478.445 435.187 489.279 451.655 491.302C468.943 493.427 483.587 490.615 483.507 490.143C483.342 489.18 487.687 485.09 484.216 483.024C480.744 480.959 430.341 460.73 419.386 443.871L419.254 443.661C417.371 440.534 415.94 432.765 419.73 436.322L420.791 434.44C424.872 438.289 438.271 447.086 452.19 455.758C466.906 464.928 487.688 470.8 488.068 470.543C496.537 464.814 489.026 460.668 487.624 459.45C484.343 456.6 479.986 455.046 477.159 451.746C470.378 443.829 475.221 429.667 467.47 422.696C466.297 421.642 464.874 420.812 464.024 419.483C462.568 417.206 463.284 414.038 465.048 411.99C466.811 409.942 469.39 408.798 471.942 407.907C477.239 406.058 483.047 405.025 488.456 406.515Z" fill="white"/>
<circle cx="493" cy="447" r="2" fill="#FFB61D"/>
<ellipse cx="480.806" cy="447" rx="1.48322" ry="2" fill="#FFB61D"/>
<path d="M408.329 456.691C389.734 451.883 370.191 450.773 351.171 453.446C352.61 446.338 354.411 439.303 356.566 432.378C350.378 434.375 343.071 428.704 343.472 422.213C343.872 415.722 351.819 410.991 357.716 413.733C359.741 409.06 359.87 403.596 358.066 398.832C357.201 396.547 360.649 395.228 363.093 395.228L376.595 395.225C378.483 395.224 381.114 394.348 380.645 392.52C379.534 388.184 382.515 383.231 386.866 382.183C391.138 381.155 395.948 384.08 397.051 388.32L397.109 388.557C398.134 393.11 403.901 394.555 408.567 394.466L410.89 394.41C414.926 394.325 419.132 394.456 421.833 397.279C425.064 400.656 424.342 406.032 423.277 410.616L423.206 410.92C421.697 417.282 420.088 423.621 418.38 429.933C421.697 456.625 413.484 458.024 408.329 456.691Z" fill="white"/>
<path d="M253.236 434.405C251.265 421.576 251.268 408.445 253.244 395.616L253.344 394.996C253.835 392.084 254.696 389.011 257.129 387.407C258.95 386.206 261.25 386.116 263.444 386.115L280.239 386.162C281.003 386.164 281.841 386.192 282.416 386.696C282.991 387.2 282.975 388.357 282.238 388.562C280.479 389.049 279.468 391.078 279.681 392.891C279.895 394.703 281.074 396.273 282.458 397.463C285.759 400.301 290.891 401.309 294.545 398.943C298.199 396.577 299.059 390.481 295.596 387.843C303.441 387.683 311.29 387.708 319.134 387.917L322.075 388.004C323.026 388.034 324.077 388.11 324.741 388.791C325.24 389.302 325.404 390.045 325.516 390.75C326.385 396.181 325.435 401.886 322.854 406.742C322.443 407.515 321.491 408.367 320.842 407.779C318.086 405.277 313.451 405.617 310.631 408.047C307.811 410.477 306.72 414.512 307.219 418.201C307.699 421.751 310.286 425.543 313.865 425.364C316.683 425.223 319.817 422.759 321.946 424.61L318.359 440.641C317.721 443.489 316.577 446.867 313.723 447.477C297.249 451.001 279.976 450.735 263.618 446.705L262.824 446.504C260.839 445.984 258.862 445.312 257.313 443.986C254.617 441.678 253.775 437.912 253.236 434.405Z" fill="white"/>
<path d="M382.485 308.608L422.296 309.408L422.946 309.424C424.142 309.462 425.346 309.567 426.423 310.069C428.856 311.205 429.972 314.004 430.712 316.586C434.662 330.367 434.175 345.382 429.339 358.877L429.135 359.43C428.506 361.09 427.683 362.745 426.197 363.68C424.973 364.449 423.482 364.609 422.031 364.687L421.721 364.702C415.801 364.983 409.861 364.832 403.963 364.25C407.035 362.359 407.81 357.755 405.86 354.721C403.909 351.687 399.789 350.42 396.319 351.406C394.204 352.006 392.234 353.452 391.469 355.513C390.703 357.574 391.443 360.221 393.398 361.227C394.75 361.923 394.517 364.115 393.333 365.07C392.15 366.025 390.505 366.092 388.984 366.117L369.01 366.441C367.509 366.465 365.93 366.471 364.612 365.752C362.743 364.732 361.884 362.535 361.357 360.472C360.086 355.494 359.915 350.239 360.857 345.188C361.993 349.177 366.908 351.599 370.763 350.07C374.617 348.54 376.535 343.407 374.627 339.725C372.719 336.043 367.42 334.65 363.947 336.917L363.803 335.63C363.305 331.119 362.918 326.55 363.784 322.107C364.733 317.241 367.439 312.463 371.876 310.252C375.112 308.639 378.849 308.55 382.485 308.608Z" fill="white"/>
<path d="M261.741 353.391C256.135 353.413 250.528 353.182 244.943 352.7L244.401 352.65C242.4 352.45 240.303 352.05 238.992 350.563C237.224 348.555 237.655 345.528 238.187 342.88L238.24 342.617C240.614 330.997 241.546 319.083 241.011 307.236L240.911 305.193C240.762 301.52 240.997 297.355 244.048 295.466C244.977 294.891 246.054 294.624 247.129 294.408L247.486 294.337C267.023 290.531 287.364 290.917 306.742 295.46C309.294 296.059 310.004 299.515 309.158 301.996C308.312 304.476 306.494 306.561 305.815 309.092C305.135 311.623 306.381 315.05 309 315.132C314.452 315.303 319.073 320.841 318.34 326.246C317.608 331.651 311.766 335.75 306.418 334.677C305.163 334.425 304.719 336.28 304.857 337.553L306.383 351.662C306.632 353.965 303.364 354.692 301.055 354.512L287.582 353.464C285.465 353.299 282.626 353.664 282.3 355.762C281.488 360.985 276.132 365.064 270.881 364.459C265.629 363.853 261.343 358.662 261.741 353.391Z" fill="white"/>
<path fill-rule="evenodd" clip-rule="evenodd" d="M225.476 440.222C226.971 440.586 229.111 441.231 228.992 442.645C226.6 471.136 216.302 465.893 207.119 474.062C204.693 476.22 203.243 481.326 202.201 481.443C206.065 483.228 211.674 490.388 221.325 490.716C248.218 491.627 258.006 472.005 258.006 472.005C258.638 465.713 255.447 454.382 259.43 457.555C262.18 459.745 261.636 449.075 265.392 450.137C266.52 450.457 264.549 457.551 265.392 457.975C265.857 458.21 266.546 456.275 267.747 454.737C268.749 453.454 270.294 452.504 270.614 452.784C270.83 452.974 270.623 454.808 269.721 456.359C268.453 458.54 266.333 460.638 266.63 460.988C266.956 461.373 272.546 456.171 272.887 456.625C275.149 459.643 260.822 494.372 236.647 500.929L234.732 501.443C220.64 505.187 214.721 505.698 201.664 500.929C195.473 498.667 191.623 519.789 188.181 526.819C186.008 531.257 175.454 542.136 170.635 538.846C164.277 534.506 159.092 526.427 153.681 522.34L153.333 522.085C149.646 519.441 141.305 515.428 128.311 510.048L128.897 509.777C131.608 508.545 138.59 505.532 143.952 500.929C151.57 494.388 155.697 480.338 161.007 472.761C166.251 465.28 173.287 466.382 169.041 465.058C169.041 465.058 158.28 459.357 153.333 458.835C136.812 457.092 115.276 464.9 108.386 469.931C98.9328 476.835 108.325 486.995 95.2631 482.015C90.9098 480.356 102.578 458.855 118.673 450.137C141.044 438.02 162.197 434.687 183.405 453.976C192.036 461.826 192.89 468.814 195.204 474.142L194.731 472.837C220.315 471.15 181.982 445.536 213.984 439.126C217.345 438.453 220.872 439.154 224.241 439.933L225.476 440.222Z" fill="white"/>
<circle cx="209" cy="458" r="2" fill="#FFB61D"/>
<circle cx="220" cy="462" r="2" fill="#FFB61D"/>
<path fill-rule="evenodd" clip-rule="evenodd" d="M103.893 535.562C125.572 550.573 97.8349 529.839 121.521 554.548C126.304 559.538 150.522 531.04 153.021 547.929C153.932 554.09 151.945 560.502 153.156 566.611C154.287 572.31 179.077 568.889 180.992 566.396C187.934 557.359 166.331 534.145 161.802 530.434C136.525 509.728 128.183 511.164 104.565 532.588L103.893 535.562Z" fill="white"/>
<path fill-rule="evenodd" clip-rule="evenodd" d="M667.836 160.354C672.088 160.863 676.042 161.335 676.042 156.379C676.042 155.2 661.731 144.842 657.491 148.831C652.038 153.961 647.707 159.843 643.512 165.541C634.706 177.502 626.499 188.65 609.765 190.311L609.563 190.333C603.076 191.116 615.161 196.873 628.733 190.311C638.065 185.798 650.48 171.522 656.377 164.742C657.92 162.967 659.017 161.706 659.495 161.268L659.618 161.162C661.628 159.612 664.808 159.992 667.836 160.354ZM688.023 173.767L702.183 185.006C704.941 187.196 701.711 191.914 698.196 192.14C696.157 192.272 694.202 191.644 692.236 191.013C690.813 190.557 689.386 190.099 687.918 189.925C679.603 188.942 673.263 196.773 668.105 203.369C663.391 209.396 658.23 215.073 652.677 220.338L651.926 221.044L651.144 221.764C646.678 225.824 641.668 229.502 635.775 230.562C627.099 232.123 618.481 227.68 611.394 222.438C609.665 221.158 607.966 219.816 606.267 218.473C601.004 214.313 595.732 210.147 589.49 207.812C584.081 210.763 579.019 214.33 574.396 218.398L574.602 218.236C582.363 226.015 587.79 236.094 590.012 246.855L588.528 246.595L587.548 246.428C578.377 244.89 568.555 243.98 560.805 248.887C558.074 250.617 555.638 253.032 553.229 255.42C551.552 257.083 549.888 258.732 548.148 260.128C548.59 260.391 549.042 260.664 549.505 260.948C558.081 264.456 567.172 266.702 576.395 267.593C577.805 267.73 579.229 267.838 580.658 267.946C587.274 268.449 593.974 268.958 599.628 272.279L601.611 273.464C604.793 275.348 608.335 277.141 611.001 274.96C611.768 274.332 612.269 273.473 612.773 272.609L612.773 272.609C613.08 272.083 613.387 271.556 613.756 271.079C614.73 269.818 616.662 268.93 617.873 269.966L618.364 273.82C618.721 271.341 621.112 269.326 623.616 269.395C626.119 269.465 628.396 271.61 628.614 274.105C629.01 278.633 623.875 281.344 619.517 282.785L596.928 290.065C588.856 292.666 579.909 291.319 572.128 287.947C564.884 284.808 558.493 280.03 552.385 275.008L551.032 273.889C546.419 270.051 540.185 265.881 534.951 268.817C544.044 269.37 550.676 277.206 556.1 284.617L556.621 285.333C557.499 286.543 558.403 287.817 558.62 289.296C559.227 293.438 554.523 296.187 550.549 297.503C553.897 299.297 552.238 304.505 549.643 307.279C545.869 311.315 540.926 314.219 535.594 315.658L535.107 317.342C535.076 317.456 535.062 317.515 535.065 317.517C537.58 317.342 539.131 320.721 538.106 323.024C537.082 325.327 534.553 326.554 532.127 327.24C524.133 329.5 515.104 327.717 508.569 322.587L507.298 323.25C501.778 326.107 496.067 328.764 489.931 329.665C483.323 330.635 476.049 329.273 471.272 324.605L471.586 325.293C472.262 326.791 472.869 328.341 472.89 329.974C472.915 331.857 471.941 333.891 470.157 334.495C467.213 335.492 464.641 332.346 463.112 329.639C462.276 331.723 463.139 334.068 463.978 336.348C464.936 338.95 465.862 341.466 464.198 343.414C462.464 345.443 459.177 344.924 456.792 343.727C447.857 339.245 443.66 327.965 445.595 318.159C447.531 308.353 454.582 300.141 462.978 294.718C457.278 290.54 453.108 284.319 451.409 277.458C451.861 278.042 453.882 276.164 456.753 273.495L456.753 273.495C462.005 268.614 470.101 261.089 476.641 261.16C477.895 261.173 479.918 262.142 481.9 263.092L481.9 263.092L481.901 263.092C483.336 263.78 484.749 264.457 485.833 264.753C485.923 264.638 486.031 264.533 486.157 264.441L484.92 263.552C482.43 261.784 479.83 260.121 476.883 259.388C473.444 258.533 469.372 259.236 467.181 262.021C461.823 268.832 455.035 274.512 447.386 278.585L451.92 286.956C450.046 287.851 447.712 287.687 445.973 286.558L445.759 286.412L445.893 286.58C448.504 289.986 446.21 295.924 441.935 296.598C437.597 298.418 433.222 292.981 433.649 288.296C433.948 285.012 435.575 282.102 437.205 279.187C437.9 277.942 438.596 276.697 439.19 275.421C441.196 271.111 442.078 266.323 442.954 261.565C444.156 255.044 445.346 248.581 449.406 243.484C452.25 239.914 456.232 237.431 460.316 235.396C476.526 227.316 495.71 225.384 513.206 230.069C516.185 219.393 522.093 209.549 530.113 201.898L530.591 201.449C533.659 198.622 537.475 196.097 541.545 196.561L541.867 196.604C545.907 197.22 549.42 194.102 552.357 191.216L553.263 190.327L553.972 189.643C559.801 184.076 566.567 178.939 574.53 178.385C581.614 177.892 588.395 181.144 594.509 184.755C601.427 188.841 608.007 193.497 614.162 198.662L615.243 199.579L615.56 199.85L615.912 200.152L616.114 200.326C621.917 205.311 628.268 210.766 635.823 210.314C643.568 209.85 649.227 203.42 654.441 197.496L654.442 197.494L654.445 197.492C654.865 197.014 655.283 196.539 655.699 196.071C662.13 188.831 669.455 182.456 676.868 176.212L680.048 173.542C681.01 172.736 682.045 171.896 683.291 171.734C685.043 171.507 686.64 172.669 688.023 173.767ZM548.029 296.498C546.456 296.185 544.308 296.322 541.587 296.909C543.379 296.916 544.887 296.884 546.112 296.813C546.705 296.74 547.295 296.648 547.875 296.531L548.029 296.498ZM489.725 261.83C490.3 261.241 490.906 260.62 491.578 260.088C492.828 259.429 494.235 259.095 495.653 259.229C500.45 259.685 504.082 264.786 503.455 269.564C500.923 275.838 494.657 279.418 488.459 282.959L488.459 282.96C484.641 285.141 480.849 287.307 477.973 290.08C478.695 288.889 479.485 287.939 480.286 287.355C482.787 285.534 485.403 283.957 487.868 282.469L487.869 282.469C489.941 281.219 491.907 280.033 493.609 278.821C496.288 276.913 498.087 275.101 499.481 273.696L499.481 273.696L499.481 273.696L499.481 273.696L499.481 273.696C500.547 272.622 501.377 271.786 502.181 271.329C502.247 271.292 505.27 265.165 497.962 261.16C492.445 258.136 489.987 261.961 488.666 264.017C488.237 264.684 487.928 265.165 487.673 265.165C487.606 265.165 487.515 265.154 487.399 265.134C487.582 264.482 487.859 263.852 488.215 263.262C488.709 262.872 489.204 262.365 489.725 261.83ZM491.285 260.25C490.031 260.977 488.954 262.033 488.215 263.262L488.033 263.4C487.669 263.664 487.304 263.859 486.927 263.948C486.168 264.127 484.359 262.74 482.828 261.564C481.912 260.862 481.095 260.235 480.66 260.064C477.796 258.941 477.46 258.925 475.474 258.831C475.138 258.815 474.756 258.797 474.306 258.771L473.482 258.719C473.302 258.709 473.103 258.701 472.891 258.692L472.891 258.692L472.89 258.692C471.244 258.623 468.875 258.523 469.348 257.243C477.81 234.34 513.965 229.356 507.987 255.246C507.493 257.386 506.195 259.26 504.897 261.134C504.248 262.071 503.599 263.007 503.051 263.978C500.715 260.658 498.169 258.908 495.414 258.728C493.878 258.627 492.645 259.244 491.578 260.088L491.285 260.25ZM556.867 239.704L556.875 239.691C554.885 243.473 552.748 248.026 550.465 253.348C552.182 248.619 554.332 244.05 556.867 239.704ZM572.987 243.192L572.71 243.202C570.504 243.295 568.525 243.625 566.773 244.193C564.829 244.823 562.761 245.876 560.568 247.352C564.405 245.227 568.646 243.805 572.987 243.192Z" fill="white"/>
<path fill-rule="evenodd" clip-rule="evenodd" d="M460.176 339.112C458.442 341.141 455.93 340.487 453.628 338.243C448.811 333.547 446.876 324.487 448.811 314.68C450.747 304.874 458.291 300.834 466.687 295.411C462.919 293.859 456.094 284.02 455.409 274.459C457.731 277.455 457.853 282.833 460.176 285.83C462.379 288.674 466.783 292.135 468.987 294.979C469.268 295.342 469.511 295.952 469.111 296.179C461.062 300.751 455.846 302.264 451.099 314.68C446.352 327.096 455.99 338.581 457.271 338.243C458.849 337.826 458.29 335.733 457.383 334.376C454.827 330.547 457.259 325.443 459.343 321.338C460.457 322.587 457.778 326.17 458.343 329.895C458.893 333.532 461.719 337.306 460.176 339.112Z" fill="#E7EAEE"/>
<circle cx="493" cy="298" r="2" fill="#FFB61D"/>
<circle cx="486" cy="290" r="2" fill="#FFB61D"/>
<path d="M186.91 309.642C188.067 311.8 186.249 314.886 183.801 314.921C181.705 303.135 179.444 290.94 172.622 281.104C159.56 262.271 132.642 256.085 121.459 236.078C113.844 241.498 102.2 240.116 96.0651 233.065C92.2497 228.68 85.599 228.141 79.8691 229.12C74.1393 230.098 68.5414 232.261 62.7316 232.077C60.2106 231.997 57.4639 231.319 55.9967 229.268C54.5295 227.216 55.3771 223.606 57.8739 223.248C68.7514 221.691 79.6288 220.134 90.5063 218.577C91.3605 218.455 92.2669 218.309 92.9154 217.74C93.6491 217.096 93.8796 216.066 94.0698 215.109C95.6446 207.184 96.7792 197.736 90.9435 192.147C86.1069 187.515 78.4734 187.675 71.9026 188.967C65.3318 190.26 58.5599 192.386 52.0843 190.679C45.6086 188.973 40.1932 181.281 43.6841 175.566C46.0223 171.738 43.3858 166.634 39.7792 163.967C36.1725 161.301 31.6842 159.988 28.1884 157.178C24.6926 154.367 22.474 148.945 25.2585 145.429C26.4831 143.883 28.4006 143.068 30.2818 142.474C36.5079 140.51 43.4504 140.361 49.452 142.93C55.4535 145.5 60.3273 151.008 61.304 157.463C62.0996 162.722 60.5878 168.84 64.0643 172.865C68.6095 178.128 77.0103 175.176 83.9639 175.113C91.0758 175.048 98.1085 178.819 101.99 184.778C105.872 190.738 106.479 198.694 103.545 205.173C111.806 196.768 122.932 190.32 134.709 190.759C145.587 191.165 155.582 197.422 162.857 205.519C170.132 213.616 175.095 223.477 179.962 233.214C181.775 236.842 186.374 238.808 190.249 237.612C194.124 236.416 196.815 232.2 196.269 228.182C199.646 228.918 199.998 233.483 200.102 236.938C200.32 244.197 202.949 251.363 207.476 257.042C208.99 254.248 210.146 251.261 210.905 248.175C214.209 251.974 215.442 257.472 214.076 262.318C212.71 267.164 208.788 271.209 203.986 272.723C201.431 273.529 198.306 273.916 197.038 276.277C201.83 284.667 205.951 293.439 209.35 302.484C211.172 307.334 212.487 313.574 208.651 317.057C204.216 313.782 201.695 308.588 199.342 303.602C195.672 295.825 192.001 288.048 188.33 280.271" fill="white"/>
<path fill-rule="evenodd" clip-rule="evenodd" d="M199.018 231.793C198.054 241.21 201.579 250.988 208.33 257.625C210.737 256.172 212.277 253.384 212.223 250.573C214.753 254.733 213.336 260.373 210.19 264.089C207.044 267.805 202.531 270.033 198.151 272.159C195.642 273.377 193.037 274.62 190.248 274.703C185.994 274.83 182.183 272.272 178.705 269.819L168.5 262.624C173.773 272.463 185.773 278.192 196.739 276.105C204.364 286.802 209.033 299.585 210.098 312.678L208.048 308.891C208.029 308.845 208.005 308.799 207.974 308.753L208.048 308.891C208.343 309.617 207.191 310.421 206.415 310.045C205.59 309.646 205.279 308.652 205.035 307.769C202.033 296.883 196.653 286.659 189.38 278.021L200.392 301.352C202.746 306.338 205.266 311.532 209.701 314.806C213.538 311.324 212.223 305.084 210.4 300.234C207.001 291.189 202.88 282.417 198.089 274.026C199.118 272.11 201.372 271.494 203.551 270.899L203.552 270.899L203.552 270.899L203.552 270.899L203.552 270.899L203.553 270.899C204.056 270.761 204.556 270.625 205.036 270.473C209.838 268.959 213.76 264.914 215.126 260.068C216.492 255.222 215.259 249.724 211.955 245.925C211.196 249.01 210.04 251.998 208.526 254.792C203.999 249.113 201.371 241.947 201.152 234.688C201.048 231.233 200.696 226.668 197.319 225.932C197.865 229.95 195.174 234.166 191.299 235.362C187.424 236.557 182.825 234.591 181.012 230.964C176.145 221.227 171.182 211.366 163.907 203.268C156.632 195.171 146.637 188.915 135.759 188.509C123.982 188.07 112.856 194.518 104.595 202.923C107.529 196.444 106.922 188.487 103.041 182.528C99.1587 176.569 92.126 172.798 85.0141 172.863C83.2101 172.879 81.3087 173.09 79.4024 173.301C73.9611 173.905 68.4805 174.512 65.1145 170.615C62.7371 167.862 62.6925 164.131 62.6474 160.365C62.6266 158.624 62.6057 156.875 62.3542 155.213C61.3775 148.758 56.5038 143.25 50.5022 140.68C44.5006 138.11 37.5582 138.26 31.332 140.224C29.4508 140.818 27.5333 141.632 26.3087 143.179C23.5242 146.695 25.7428 152.117 29.2386 154.927C31.0784 156.406 33.1932 157.471 35.3097 158.536C37.2146 159.495 39.1209 160.454 40.8294 161.717C44.436 164.384 47.0725 169.488 44.7343 173.316C41.2434 179.031 46.6589 186.723 53.1345 188.429C58.4875 189.84 64.0431 188.631 69.5201 187.44C70.6686 187.19 71.8138 186.941 72.9528 186.717C79.5236 185.425 87.1571 185.265 91.9937 189.897C97.8294 195.486 96.6948 204.933 95.1201 212.859C94.9298 213.816 94.6993 214.846 93.9656 215.49C93.3172 216.059 92.4107 216.205 91.5565 216.327L58.9241 220.998C56.4273 221.355 55.5797 224.966 57.0469 227.018C58.5141 229.069 61.2608 229.747 63.7818 229.827C67.6364 229.949 71.3977 229.038 75.1661 228.125C77.0777 227.662 78.991 227.199 80.9193 226.87C86.6492 225.891 93.2999 226.429 97.1153 230.815C103.25 237.866 114.894 239.248 122.509 233.828C128.394 244.355 138.635 251.056 148.922 257.787C158.184 263.847 167.483 269.931 173.672 278.854C180.494 288.69 182.755 300.885 184.851 312.67C187.299 312.635 189.117 309.55 187.961 307.392L185.661 310.426C184.811 291.851 175.324 273.85 160.482 262.649C156.807 259.875 152.776 257.444 148.754 255.017C139.916 249.686 131.12 244.38 126.227 235.524C125.786 234.726 125.376 233.882 125.304 232.973C125.214 231.824 125.672 230.716 126.114 229.646L126.177 229.494C127.941 225.214 129.174 220.519 128.307 215.972C127.441 211.425 124.018 207.126 119.44 206.441C127.189 211.398 128.777 223.698 122.542 230.46C116.306 237.222 103.918 236.635 98.3508 229.312C93.8891 223.444 84.9673 224.163 77.7859 225.827C70.6046 227.491 62.1477 229.233 56.6001 224.379C68.4688 221.115 80.6819 219.106 92.9705 218.395C95.898 218.225 97.0463 214.574 97.4406 211.668C98.0467 207.201 98.6528 202.662 97.9888 198.204C97.3247 193.745 95.2056 189.298 91.4222 186.847C86.8789 183.904 81.0137 184.36 75.63 184.924L61.3228 186.421C58.2401 186.743 55.0719 187.06 52.083 186.239C49.0941 185.418 46.2818 183.189 45.7087 180.143C45.3468 178.219 45.8975 176.325 46.4528 174.415C46.8526 173.04 47.2546 171.657 47.3202 170.249C47.5069 166.24 44.9173 162.567 41.7707 160.077C39.8427 158.551 37.6945 157.35 35.5443 156.149C34.185 155.389 32.8249 154.629 31.5192 153.786C29.0614 152.199 26.5396 149.635 27.223 146.79C27.66 144.971 29.3062 143.71 30.9613 142.838C36.5491 139.892 43.5337 139.76 49.2292 142.491C54.9247 145.223 59.1937 150.753 60.3945 156.954C60.6907 158.484 60.8254 160.082 60.9597 161.677C61.2705 165.365 61.5798 169.036 63.8845 171.808C66.6374 175.118 71.3952 175.952 75.6959 175.747C77.1704 175.677 78.6448 175.512 80.1179 175.347C82.9414 175.031 85.7605 174.715 88.5676 175.068C98.0069 176.257 105.444 186.078 104.029 195.486C103.951 196.007 103.85 196.532 103.749 197.058C103.389 198.935 103.025 200.83 103.666 202.592C104.487 204.85 108.077 206.052 109.215 203.936C114.312 194.458 126.004 189.682 136.693 190.934C147.382 192.186 156.948 198.622 163.966 206.782C170.983 214.941 175.757 224.76 180.111 234.602C181.645 238.069 186.211 239.324 189.858 238.293C193.506 237.262 196.401 234.535 199.018 231.793ZM179.863 248.312C179.967 248.298 180.207 248.768 180.57 249.478C181.462 251.225 183.094 254.418 185.245 255.39C185.149 256.295 183.726 255.81 183.134 255.119C181.452 253.153 179.667 250.892 179.863 248.312ZM184.941 263.826C186.052 265.454 179.401 266.264 177.191 264.844C177.58 264.769 178.093 264.809 178.661 264.853C179.335 264.905 180.086 264.964 180.8 264.844C181.845 264.668 182.854 264.347 183.616 264.105C184.355 263.87 184.861 263.709 184.941 263.826ZM183.345 257.779C180.698 258.233 177.445 254.707 177.445 251.391C178.208 253.843 180.919 255.788 182.417 256.862C183.179 257.409 183.627 257.731 183.345 257.779ZM192.83 271.646C189.304 271.646 187.706 265.7 189.304 265.318C189.686 265.145 189.704 265.677 189.731 266.464C189.759 267.291 189.796 268.398 190.277 269.261C190.811 270.219 191.942 270.859 192.602 271.233C193.101 271.516 193.331 271.646 192.83 271.646ZM196.758 263.55C197.532 263.976 198.238 264.638 198.439 265.498C198.639 266.359 198.158 267.403 197.292 267.582C197.021 267.184 197.168 266.93 197.323 266.663C197.551 266.271 197.796 265.849 196.758 264.893C196.321 264.49 195.812 264.315 195.455 264.192C195.181 264.098 194.996 264.034 195.003 263.922C195.048 263.207 196.13 263.204 196.758 263.55ZM190.158 255.802C189.984 255.924 189.864 256.007 189.967 256.103C190.285 256.399 190.66 256.541 191.035 256.326C191.32 256.161 191.465 255.829 191.533 255.506C191.909 253.705 190.007 251.844 188.214 252.261C188.373 252.68 188.678 252.814 189.047 252.977C189.474 253.165 189.987 253.391 190.464 254.137C191.106 255.143 190.517 255.553 190.158 255.802ZM189.555 272.783C187.479 272.179 185.426 267.276 186.531 266.904C187.221 266.673 187.217 266.71 187.177 267.098C187.14 267.453 187.073 268.102 187.479 269.109C187.984 270.358 188.69 271.372 189.14 272.018C189.448 272.46 189.636 272.73 189.555 272.783ZM665.077 161.467C660.62 162.015 657.107 165.61 654.892 169.516C653.82 171.405 652.963 173.404 652.106 175.402C651.191 177.537 650.275 179.671 649.1 181.67C643.491 191.209 632.835 196.422 622.623 200.683C620.862 201.418 617.778 201.072 618.327 199.245C635.046 196.073 649.44 182.835 653.997 166.439C654.534 164.508 652.022 162.877 650.083 163.388C648.329 163.85 647.08 165.313 645.953 166.765L645.601 167.222C636.288 179.335 622.919 189.575 607.654 190.237C606.574 190.283 605.028 189.624 605.503 188.653C616.809 188.274 627.467 182.693 635.862 175.111C644.258 167.529 650.659 158.025 656.648 148.428C657.575 146.944 659.799 147.261 661.455 147.826C666.537 149.559 671.412 151.896 675.945 154.773C678.379 156.318 676.451 160.439 673.684 161.247C672.094 161.712 670.434 161.599 668.766 161.486C667.532 161.402 666.294 161.318 665.077 161.467ZM660.735 152.015L660.344 151.897C659.155 151.556 657.827 151.366 656.87 152.105C656.499 152.391 656.233 152.786 655.989 153.189L652.807 158.554C654.478 158.94 656.078 159.625 657.512 160.565C658.683 161.333 660.296 161.363 661.495 160.638C662.693 159.913 663.416 158.47 663.279 157.076C663.228 156.556 664.08 156.415 664.436 156.797C664.702 157.083 664.781 157.475 664.861 157.866C664.887 157.998 664.914 158.13 664.948 158.258C665.082 158.763 665.494 159.306 666.006 159.203C666.525 158.709 666.809 157.978 666.759 157.264C666.945 156.527 668.095 157.184 668.273 157.923C668.451 158.662 668.785 159.713 669.519 159.516C670.598 159.249 670.938 157.746 670.412 156.767C669.886 155.787 668.828 155.234 667.819 154.766C665.519 153.7 663.152 152.781 660.735 152.015ZM651.064 160.737C652.725 162.409 655.143 163.298 657.491 163.102C656.051 161.29 653.603 160.343 651.318 160.693L651.064 160.737ZM532.127 327.239C524.133 329.5 515.104 327.717 508.569 322.587C502.654 325.687 496.539 328.694 489.931 329.664C483.323 330.635 476.049 329.273 471.272 324.605C472.061 326.315 472.866 328.09 472.891 329.973C472.915 331.857 471.941 333.89 470.157 334.495C467.213 335.492 464.641 332.345 463.113 329.638C462.276 331.722 463.139 334.068 463.978 336.348C464.936 338.949 465.862 341.466 464.198 343.414C462.465 345.443 459.177 344.923 456.792 343.727C447.857 339.245 443.66 327.965 445.595 318.159C447.531 308.353 454.582 300.141 462.978 294.718C457.278 290.539 453.108 284.319 451.409 277.458C452.57 278.956 453.431 280.697 454.292 282.437L454.292 282.438C455.153 284.178 456.015 285.919 457.176 287.417C458.278 288.839 459.679 290.018 461.081 291.198L461.082 291.198C462.483 292.377 463.885 293.557 464.987 294.979C465.268 295.342 465.511 295.952 465.112 296.179C457.062 300.75 450.177 308.035 447.893 317.006C445.609 325.976 448.787 336.566 456.67 341.419C458.059 342.274 459.716 342.961 461.293 342.544C462.871 342.128 464.054 340.147 463.148 338.79C460.592 334.962 460.281 329.744 462.365 325.64L468.97 333.046C470.489 332.655 470.864 330.613 470.46 329.097C470.332 328.617 470.157 328.143 469.982 327.67L469.981 327.669C469.604 326.65 469.228 325.635 469.329 324.568C469.477 323.007 471.515 321.611 472.591 322.751C476.887 327.304 483.788 328.595 489.966 327.593C496.145 326.591 501.804 323.625 507.339 320.702L513.872 317.253C513.4 319.137 511.873 320.719 510.006 321.256C516.312 325.786 524.744 327.21 532.188 325.001C533.47 324.62 534.786 324.094 535.618 323.046C536.449 321.999 536.584 320.295 535.579 319.412C535.457 319.304 535.32 319.209 535.183 319.115C534.914 318.929 534.647 318.745 534.494 318.463C534.262 318.037 534.621 317.321 535.065 317.516C537.58 317.341 539.131 320.72 538.106 323.024C537.082 325.327 534.553 326.553 532.127 327.239ZM487.497 293.805C486.061 293.343 484.449 294.334 483.825 295.707C483.201 297.081 483.378 298.695 483.85 300.127C484 298.511 484.206 297.293 484.818 296.23C485.081 295.772 485.898 295.34 486.616 294.96C487.544 294.469 488.307 294.065 487.497 293.805ZM486.279 289.744C488.374 289.222 490.741 290.029 492.081 291.722C493.421 293.414 493.663 295.903 492.675 297.822C492.437 297.535 492.381 297.015 492.311 296.363C492.103 294.437 491.771 291.359 486.279 289.744ZM484.462 304.626C483.799 305.453 486.108 307.64 489.719 306.132C490.388 305.853 489.842 305.821 488.982 305.77C488.197 305.724 487.151 305.663 486.527 305.385C485.999 305.149 485.729 304.772 485.526 304.489C485.226 304.071 485.075 303.861 484.462 304.626ZM491.779 307.394C494.093 306.241 492.641 309.621 487.8 309.207C487.364 309.169 486.793 309.001 486.797 308.561C486.799 308.406 487.208 308.371 487.845 308.315C488.834 308.229 490.371 308.095 491.779 307.394ZM477.501 300.978C478.372 301.829 479.64 301.851 480.486 301.688C481.001 301.588 481.254 301.127 480.781 300.978C480.671 300.943 480.488 300.914 480.268 300.88C479.765 300.8 479.07 300.691 478.604 300.41C478.305 300.229 478.135 299.613 477.988 299.085C477.838 298.543 477.713 298.092 477.501 298.304C477.083 298.72 476.63 300.127 477.501 300.978ZM478.274 303.855C478.695 304.497 477.09 304.276 476.745 303.855C476.399 303.435 476.059 301.851 476.638 301.851C476.805 301.851 476.863 302.101 476.931 302.399C476.995 302.675 477.068 302.993 477.246 303.196C477.593 303.589 477.825 303.647 477.995 303.69C478.111 303.719 478.198 303.741 478.274 303.855ZM550.493 300.67C551.358 302.399 549.844 304.338 548.384 305.606C542.447 310.76 535.353 314.572 527.779 316.679C535.942 316.734 544.068 313.241 549.643 307.279C552.238 304.504 553.897 299.297 550.549 297.503C554.523 296.187 559.227 293.438 558.62 289.296C558.403 287.817 557.499 286.543 556.621 285.332L556.1 284.617C550.677 277.206 544.045 269.37 534.952 268.817C540.185 265.881 546.419 270.051 551.032 273.889L552.385 275.008C558.493 280.03 564.884 284.807 572.128 287.947C579.909 291.318 588.857 292.666 596.928 290.065L619.517 282.785C623.875 281.343 629.01 278.633 628.614 274.104C628.396 271.609 626.119 269.464 623.616 269.395C621.113 269.325 618.721 271.34 618.364 273.819L617.873 269.966C616.662 268.93 614.73 269.818 613.756 271.079C613.387 271.556 613.08 272.083 612.773 272.608C612.269 273.472 611.768 274.332 611.001 274.959C608.335 277.14 604.793 275.348 601.611 273.464L599.628 272.279C593.974 268.957 587.274 268.448 580.658 267.946C579.23 267.837 577.805 267.729 576.395 267.593C567.172 266.702 558.082 264.455 549.505 260.947C557.37 267.397 567.646 268.479 578.012 269.571C583.236 270.122 588.482 270.674 593.454 271.917C597.398 272.903 601.757 274.913 602.725 278.862C604.13 284.595 597.32 289.036 591.441 289.572C581.827 290.449 572.459 286.361 564.297 281.143L563.378 280.547C560.424 278.608 557.561 276.522 554.7 274.437L554.699 274.437L554.698 274.436C549.447 270.61 544.201 266.787 538.405 263.881C544.392 264.182 548.763 259.848 553.229 255.42C555.638 253.032 558.074 250.617 560.805 248.887C568.832 243.804 579.081 244.962 588.528 246.594L590.013 246.855C587.79 236.093 582.363 226.015 574.602 218.236L587.939 244.455C573.897 239.777 557.057 245.623 548.934 257.995C555.204 236.837 570.119 218.381 589.49 207.811C595.732 210.146 601.004 214.313 606.267 218.473L606.268 218.473L606.269 218.474C607.968 219.816 609.665 221.158 611.394 222.437C618.481 227.68 627.099 232.122 635.776 230.562C642.015 229.44 647.264 225.382 651.927 221.043L652.677 220.338C658.23 215.073 663.392 209.396 668.105 203.368C673.263 196.773 679.603 188.942 687.918 189.925C689.386 190.099 690.814 190.557 692.236 191.013C694.202 191.644 696.157 192.271 698.197 192.14C701.711 191.914 704.942 187.195 702.183 185.006L688.024 173.767C686.64 172.668 685.043 171.506 683.291 171.734C682.046 171.895 681.01 172.735 680.048 173.542L676.868 176.212C669.455 182.456 662.131 188.83 655.699 196.071C655.282 196.54 654.863 197.016 654.441 197.495C649.227 203.42 643.568 209.85 635.823 210.313C628.268 210.765 621.917 205.311 616.114 200.325C615.822 200.075 615.532 199.826 615.243 199.578L614.162 198.662C608.008 193.497 601.427 188.84 594.509 184.755C588.395 181.144 581.614 177.891 574.53 178.384C566.242 178.961 559.251 184.503 553.263 190.326L552.357 191.215C549.42 194.101 545.907 197.22 541.867 196.603L541.545 196.56C537.475 196.097 533.659 198.622 530.591 201.449L530.113 201.897C522.093 209.549 516.186 219.392 513.206 230.069C495.71 225.384 476.527 227.316 460.316 235.395C456.232 237.431 452.25 239.913 449.406 243.483C445.346 248.58 444.156 255.044 442.955 261.565L442.954 261.565C442.078 266.323 441.196 271.11 439.19 275.42C438.596 276.696 437.9 277.942 437.205 279.186C435.575 282.102 433.948 285.011 433.649 288.295C433.222 292.981 437.597 298.418 441.935 296.598C446.281 295.913 448.581 289.786 445.759 286.411C447.517 287.671 449.969 287.887 451.921 286.955L447.387 278.585C455.035 274.512 461.823 268.832 467.181 262.021C469.372 259.236 473.444 258.532 476.883 259.387C479.831 260.12 482.43 261.784 484.92 263.552L486.158 264.441C484.715 265.49 485.546 268.278 487.327 268.367C486.178 263.688 490.857 258.773 495.653 259.229C500.45 259.684 504.082 264.786 503.455 269.563C500.923 275.838 494.656 279.418 488.458 282.959C481.733 286.801 475.09 290.597 473.385 297.739C471.668 304.933 477.216 312.99 484.55 313.952C491.883 314.914 499.322 308.56 499.518 301.166C499.518 301.166 500.603 301.278 500.987 300.127C501.593 298.314 502.166 296.305 502.734 294.314C503.802 290.571 504.852 286.891 506.065 284.693C509.465 278.53 515.793 273.649 522.83 273.479C525.065 273.425 527.286 273.094 529.504 272.763C532.338 272.34 535.168 271.917 538.019 272.074C543.103 272.355 548.677 275.331 549.41 280.37C543.772 279.275 537.889 279.46 532.331 280.907L552.008 283.247C556.33 283.761 557.138 290.452 554.058 293.526C551.155 296.425 546.731 296.901 542.59 297.086L541.84 297.116C542.564 298.593 544.363 298.745 546.164 298.898C547.961 299.051 549.759 299.203 550.493 300.67ZM655.167 214.682C649.066 221.455 641.935 228.734 632.825 229.074C624.86 229.371 617.893 224.238 611.448 219.49L610.972 219.14L609.433 218.015C602.233 212.792 594.776 207.924 587.097 203.434C581.151 199.957 574.312 196.599 567.643 198.323L578.201 201.646C576.42 202.601 575.786 205.199 576.926 206.867C577.171 204.37 580.059 202.782 582.537 203.172C585.016 203.563 587.032 205.382 588.567 207.367C575.257 212.47 563.934 222.574 557.352 235.218C556.128 237.57 555.064 240.003 553.999 242.434C552.557 245.73 551.115 249.023 549.279 252.112C546.087 257.479 541.362 262.362 535.282 263.784C534.43 263.983 533.557 264.113 532.685 264.244C530.938 264.506 529.195 264.767 527.64 265.576C527.504 265.647 527.364 265.722 527.221 265.798L527.099 265.863C525.274 266.838 523.023 268.039 521.898 266.454C520.055 263.858 517.117 262.067 513.965 261.618C519.176 244.107 532.585 229.227 549.46 222.227C550.415 221.831 550.049 220.401 549.528 219.509L541.852 206.374C541.143 205.161 541.973 203.512 543.222 202.868C544.471 202.224 545.96 202.321 547.354 202.495C556.233 203.6 564.782 207.244 571.728 212.883C572.839 213.785 574.66 214.67 575.473 213.492C567.548 205.5 556.212 201.794 545.057 200.301C554.7 199.359 564.672 202.395 572.153 208.552L572.517 208.851C574.304 210.302 576.467 211.844 578.528 210.954C570.174 202.94 558.749 198.211 547.175 197.974C549.557 196.203 551.781 194.234 554.005 192.265L554.006 192.264L554.007 192.264C556.266 190.264 558.525 188.264 560.949 186.471C565.761 182.914 571.512 180.136 577.486 180.485C581.823 180.738 585.889 182.61 589.726 184.647C597.837 188.953 605.474 194.152 612.455 200.118C612.938 200.53 613.423 200.948 613.911 201.368L613.948 201.4C620.583 207.118 627.822 213.356 636.398 212.55C641.628 212.059 646.261 208.9 649.942 205.152C651.978 203.079 653.793 200.808 655.61 198.537L655.611 198.536C657.077 196.702 658.544 194.868 660.127 193.137C662.412 190.64 665.057 188.291 668.305 187.338C671.552 186.384 675.51 187.174 677.439 189.955L655.167 214.682ZM444.997 261.07C446.173 254.634 447.336 248.27 451.686 243.584C453.815 241.29 456.54 239.637 459.314 238.186C473.506 230.764 490.056 227.938 505.906 230.232C509.785 230.793 514.591 232.97 514.528 236.652C514.505 236.878 514.483 237.103 514.463 237.328C514.503 237.098 514.524 236.872 514.528 236.652C516.108 221.254 525.078 206.767 538.181 198.517C539.343 206.621 542.893 214.367 548.273 220.537C534.015 226.542 522.177 238.089 515.817 252.193L515.716 252.416C513.91 256.37 511.045 261.225 506.862 260.24L508.933 247.444C509.123 246.271 509.299 245 508.742 243.95C508.121 242.777 506.793 242.237 505.499 241.847L505.044 241.714C497.547 239.592 489.136 237.554 482.289 241.273C478.667 243.241 476.067 246.538 473.636 249.923L471.831 252.459C467.546 258.441 462.749 264.057 457.509 269.223C455.398 271.304 453.117 273.372 450.291 274.268C447.466 275.164 443.955 274.561 442.278 272.117C443.616 268.625 444.309 264.835 444.997 261.07ZM491.202 310.932C486.751 312.583 483.128 311.769 479.654 309.746C478.167 308.88 476.767 307.765 475.929 306.262C474.674 304.008 474.862 301.21 475.586 298.733C476.669 295.031 478.884 291.669 481.859 289.213C483.915 287.515 486.283 286.269 488.651 285.023L488.652 285.022C489.469 284.592 490.285 284.162 491.089 283.714C498.941 279.334 505.714 273.036 510.652 265.523C511.638 264.023 513.716 263.537 515.455 263.98C517.194 264.423 518.644 265.614 519.898 266.898C520.795 267.817 521.461 269.644 520.263 270.107C511.879 273.353 505.128 280.556 502.43 289.132C502.357 289.366 502.285 289.602 502.214 289.839C501.804 291.195 501.389 292.568 500.509 293.666C499.476 294.955 497.402 299.494 498.46 301.646C498.46 301.646 495.653 309.281 491.202 310.932ZM502.834 242.996C504.192 243.301 505.671 243.738 506.417 244.914C507.027 245.877 506.988 247.101 506.892 248.236C506.514 252.729 505.569 257.173 504.088 261.431C503.838 262.151 503.065 263.017 502.501 262.504C501.862 259.28 498.917 256.659 495.641 256.399C492.365 256.139 489.043 258.262 487.904 261.345C487.679 261.953 486.888 262.179 486.262 262.011C485.792 261.886 485.391 261.601 485.007 261.295L484.627 260.985C480.725 257.815 475.443 256.408 470.48 257.216C473.124 252.766 476.478 248.74 480.376 245.336C481.971 243.942 483.702 242.628 485.716 241.975C487.613 241.36 489.65 241.366 491.641 241.467C495.406 241.659 499.155 242.171 502.834 242.996ZM680.781 186.373C678.884 184.35 676.284 182.997 673.537 182.613L676.653 178.654C677.642 177.413 678.796 176.14 680.355 175.945C681.479 175.803 682.585 176.265 683.608 176.752C687.031 178.383 690.258 180.426 693.196 182.823C694.177 183.623 695.163 184.516 695.589 185.708C696.015 186.899 695.672 188.459 694.53 189.004C693.388 189.549 691.743 188.355 692.211 187.18L692.256 187.048C692.448 186.379 692.146 185.59 691.541 185.238L690.438 187.353C690.337 187.538 690.218 187.717 690.036 187.818C689.3 188.225 688.701 187.08 688.654 186.24L688.645 186.124C688.566 185.296 688.132 184.241 687.371 184.499C687.269 185.916 686.255 187.225 684.909 187.679C683.563 188.133 681.964 187.706 681.024 186.64L680.781 186.373ZM443.16 290.795L441.828 285.741C441.195 285.564 440.577 286.199 440.487 286.85C440.427 287.284 440.524 287.714 440.654 288.137L440.859 288.768C441.543 290.913 441.526 293.275 440.811 295.41C439.491 292.708 438.802 289.699 438.814 286.691C437.953 286.218 437.367 287.66 437.429 288.64L437.801 294.49C435.996 292.863 435.359 290.223 435.668 287.813C435.977 285.402 437.108 283.177 438.381 281.106C439.045 280.025 439.781 278.942 440.837 278.24C441.894 277.539 443.349 277.298 444.428 277.965C445.325 278.518 445.741 279.502 446.163 280.499C446.482 281.253 446.804 282.015 447.34 282.605C447.53 282.814 447.752 283.028 447.977 283.245C448.849 284.086 449.781 284.985 449.171 285.891C447.293 284.738 445.575 283.324 444.082 281.703C443.542 285.052 444.037 288.56 445.482 291.629C445.778 292.256 444.801 292.855 444.186 292.533C443.571 292.211 443.337 291.466 443.16 290.795ZM623.544 274.263C624.506 273.412 625.386 272.634 625.811 272.846C627.051 273.464 623.683 276.181 621.9 276.949C622.029 277.81 623.278 277.424 624.008 276.949C624.738 276.474 626.781 275.963 626.381 276.48C623.889 279.703 619.077 282.265 614.628 282.767C612.825 282.97 610.595 282.488 610.021 280.767C609.496 279.196 610.664 277.647 611.897 276.48L612.194 276.207C612.713 275.743 613.546 275.29 614.024 275.796C615.295 277.141 617.517 276.041 618.981 274.909C618.981 274.909 622.787 271.238 623.425 271.473C624.059 271.706 621.526 275.846 621.526 275.846C622.154 275.493 622.869 274.861 623.544 274.264L623.544 274.263ZM605.328 277.671C605.784 277.567 606.258 277.751 606.651 278.003C608.081 278.922 608.764 280.857 608.227 282.469C607.689 284.082 605.982 285.22 604.287 285.097C604.046 285.08 603.795 285.035 603.607 284.883C603.211 284.566 603.261 283.961 603.349 283.462L603.988 279.81C604.142 278.928 604.455 277.869 605.328 277.671ZM524.721 269.379C527.173 268.965 529.711 269.066 532.122 269.675C531.983 270.669 530.821 271.121 529.838 271.324C526.804 271.951 523.669 272.086 520.592 271.723C521.363 270.274 523.103 269.653 524.721 269.379ZM678.422 188.404L671.988 184.605C675.158 184.131 678.539 185.796 680.096 188.598C679.65 189.005 678.942 188.711 678.422 188.404ZM537.431 264.609C534.704 265.331 532.007 266.17 529.352 267.124C532.11 268.649 536.026 267.43 537.431 264.609ZM510.769 261.159C511.52 261.314 511.179 262.496 510.58 262.974C508.757 264.43 505.987 264.556 504.039 263.271L510.769 261.159ZM681.99 173.023C682.432 172.918 682.887 173.097 683.3 173.284C685.988 174.497 688.449 176.208 690.522 178.305L681.276 173.584C681.418 173.306 681.686 173.095 681.99 173.023ZM541.122 198.529L541.213 198.593C542.048 198.473 542.909 198.543 543.712 198.798C543.011 200.123 542.035 201.303 540.864 202.24C540.278 201.078 540.381 199.599 541.122 198.529ZM699.343 185.556L699.363 185.614C700.384 186.029 701.08 187.138 701.009 188.238C698.904 187.147 697.201 185.3 696.283 183.115C697.54 183.55 698.639 184.427 699.343 185.556ZM507.9 266.258L507.747 266.467C507.214 267.192 506.579 267.978 505.686 268.082C504.792 268.186 503.877 267.03 504.507 266.389C505.565 265.914 506.808 265.866 507.9 266.258ZM444.62 275.23C445.417 275.416 446.317 275.998 446.192 276.806C444.366 276.568 442.564 276.146 440.823 275.548C442.014 275.05 443.362 274.937 444.62 275.23ZM614.199 275.075C613.784 275.255 613.409 274.498 613.803 274.277C613.803 274.277 616.526 269.502 616.644 272.846C616.702 273.678 614.942 274.696 614.199 275.075ZM499.152 299.592C499.354 298.143 499.735 295.41 500.509 295.41C501.606 295.294 501.184 297.163 500.887 298.479C500.805 298.842 500.732 299.163 500.704 299.389C500.604 300.18 499.866 300.801 499.019 300.42C499.053 300.305 499.095 300 499.152 299.594L499.152 299.592ZM243.943 349.699C249.528 350.181 255.135 350.411 260.741 350.389C260.343 355.66 264.63 360.851 269.881 361.457C275.132 362.063 280.488 357.984 281.3 352.761C281.626 350.663 284.465 350.298 286.582 350.462L300.055 351.511C302.364 351.691 305.632 350.964 305.383 348.661L303.857 334.551C303.719 333.279 304.163 331.424 305.418 331.676C310.766 332.749 316.608 328.65 317.34 323.245C318.073 317.84 313.452 312.301 308 312.13C305.381 312.048 304.135 308.622 304.815 306.091C305.18 304.73 305.875 303.498 306.57 302.264C307.168 301.203 307.767 300.141 308.158 298.994C309.004 296.514 308.294 293.057 305.742 292.459C286.364 287.916 266.023 287.53 246.486 291.335L246.129 291.406C245.054 291.623 243.977 291.889 243.048 292.464C239.997 294.353 239.762 298.519 239.911 302.192L240.011 304.234C240.546 316.082 239.614 327.995 237.24 339.615L237.187 339.879C236.656 342.527 236.224 345.554 237.992 347.561C239.303 349.049 241.4 349.449 243.401 349.649L243.943 349.699ZM278.312 352.54C278.468 353.303 278.273 354.098 277.966 354.813L277.868 355.031C276.065 358.838 270.698 360.47 267.102 358.243C263.437 355.975 262.539 350.275 265.328 346.989C258.241 347.838 251.06 347.894 243.961 347.155C241.764 346.927 238.892 345.741 239.341 343.578C242.431 328.706 243.396 313.394 242.198 298.251C241.981 295.507 245.359 294.083 248.067 293.586C265.536 290.379 283.612 290.512 301.033 293.975C303.261 294.418 306.13 296.112 305.142 298.158C302.817 302.976 301.888 308.457 302.495 313.772C302.65 315.127 303.711 316.901 304.894 316.222C308.081 314.392 312.692 315.859 314.235 319.194C315.778 322.529 313.911 326.993 310.453 328.237C306.996 329.481 302.713 327.229 301.778 323.675C300.942 330.994 301.24 338.441 302.657 345.669C303.148 348.175 299.5 349.12 296.954 348.93L276.629 347.416C276.006 348.397 276.644 349.412 277.316 350.478C277.735 351.144 278.166 351.829 278.312 352.54ZM383.485 306.607L423.296 307.407L423.946 307.423C425.142 307.461 426.346 307.566 427.423 308.068C429.856 309.204 430.972 312.004 431.712 314.585C435.662 328.366 435.175 343.381 430.339 356.876L430.135 357.429C429.506 359.089 428.683 360.744 427.197 361.679C425.973 362.448 424.482 362.608 423.031 362.686L422.721 362.701C416.801 362.982 410.861 362.831 404.963 362.249C408.034 360.358 408.81 355.754 406.86 352.72C404.909 349.686 400.789 348.419 397.319 349.405C395.204 350.005 393.234 351.451 392.469 353.512C391.703 355.573 392.443 358.22 394.398 359.226C395.75 359.922 395.517 362.114 394.333 363.069C393.15 364.024 391.504 364.091 389.984 364.116L370.01 364.44C368.509 364.464 366.93 364.47 365.612 363.751C363.743 362.731 362.884 360.534 362.357 358.471C361.086 353.493 360.915 348.238 361.857 343.187C362.993 347.176 367.908 349.598 371.763 348.069C375.617 346.539 377.535 341.406 375.627 337.724C373.719 334.042 368.42 332.649 364.947 334.916L364.803 333.629C364.305 329.118 363.918 324.549 364.784 320.106C365.733 315.24 368.439 310.462 372.876 308.251C376.112 306.638 379.849 306.549 383.485 306.607ZM426.943 310.771C425.946 310.171 424.744 310.068 423.575 310.019L423.283 310.008C410.899 309.545 398.507 309.311 386.115 309.305L381.984 309.312C379.37 309.321 376.672 309.358 374.281 310.412C370.712 311.983 368.399 315.628 367.456 319.412C366.512 323.196 366.738 327.16 366.971 331.053C373.246 329.324 379.996 335.701 379.252 342.167C378.507 348.633 371.338 353.303 364.95 352.056C364.66 354.099 364.375 356.22 364.975 358.194C365.575 360.168 367.327 361.953 369.389 361.887L387.908 361.291C389.055 361.254 390.639 360.661 390.306 359.563C388.414 353.33 393.873 346.054 400.387 346.127C406.9 346.201 412.194 353.599 410.162 359.788C414.232 360.704 418.464 360.897 422.601 360.354C423.944 360.178 425.346 359.893 426.375 359.012C427.387 358.145 427.884 356.835 428.306 355.571C432.603 342.694 433.074 328.565 429.643 315.43C429.199 313.732 428.584 311.904 427.162 310.913L426.943 310.771ZM251.236 433.405C249.265 420.576 249.268 407.445 251.244 394.616L251.344 393.996C251.835 391.084 252.696 388.011 255.129 386.407C256.95 385.206 259.25 385.116 261.444 385.115L278.239 385.162C279.003 385.164 279.841 385.192 280.416 385.696C280.991 386.2 280.975 387.358 280.238 387.562C278.479 388.049 277.468 390.078 277.681 391.891C277.895 393.704 279.074 395.273 280.458 396.463C283.759 399.301 288.891 400.309 292.545 397.943C296.199 395.577 297.059 389.481 293.596 386.843C301.441 386.684 309.29 386.708 317.134 386.917L320.075 387.004C321.026 387.035 322.077 387.11 322.741 387.791C323.24 388.302 323.404 389.045 323.516 389.75C324.385 395.181 323.435 400.886 320.854 405.742C320.443 406.515 319.491 407.368 318.842 406.779C316.086 404.277 311.451 404.618 308.631 407.047C305.811 409.477 304.72 413.512 305.219 417.201C305.699 420.751 308.286 424.543 311.865 424.364C312.873 424.314 313.922 423.966 314.95 423.625L314.951 423.625C316.797 423.012 318.579 422.421 319.946 423.61L316.359 439.641C315.721 442.489 314.577 445.867 311.723 446.477C295.249 450.001 277.976 449.735 261.618 445.705L260.824 445.504C258.839 444.984 256.862 444.312 255.313 442.986C252.617 440.678 251.775 436.912 251.236 433.405ZM316.766 426.477C312.106 428.669 306.034 426.787 303.117 422.543C300.201 418.298 300.486 412.232 303.479 408.041C306.472 403.849 311.851 401.622 316.983 402.06L317.411 402.097C318.13 402.158 318.868 402.185 319.479 401.825C320.251 401.37 320.581 400.435 320.796 399.565C321.653 396.092 321.605 392.401 320.66 388.952L298.947 389.111C299.343 395.138 294.381 401.02 288.374 401.645C282.366 402.271 276.299 397.539 275.444 391.559L275.324 390.67C275.195 389.773 274.994 388.887 274.324 388.318C273.854 387.919 273.236 387.76 272.626 387.639L272.397 387.595C266.08 386.401 258.071 385.905 254.756 391.414C253.627 393.289 253.324 395.534 253.094 397.711C251.775 410.21 252.088 422.88 254.025 435.299L254.119 435.88C254.434 437.728 254.927 439.626 256.302 440.866C257.248 441.719 258.489 442.141 259.721 442.488L260.028 442.574C275.782 446.907 292.554 447.485 308.569 444.257L309.458 444.073C310.246 443.907 311.064 443.717 311.683 443.202C312.489 442.532 312.799 441.451 313.068 440.437L316.766 426.477ZM433.937 458.239C433.937 458.239 434.027 455.741 434.343 454.92C434.912 453.438 436.591 451.33 436.591 451.33C436.474 451.901 436.311 452.511 436.143 453.141C435.565 455.3 434.927 457.685 435.897 459.45C436.644 460.811 447.583 467.979 451.343 469.659C467.421 476.844 483.579 483.346 499.813 489.879L499.813 489.879L499.815 489.879L499.816 489.88L499.826 489.884C506.461 492.554 513.108 495.229 519.768 497.958C508.324 496.563 497.787 491.234 487.519 485.991C485.303 498.286 492.154 510.68 501.398 519.085C508.128 525.206 516.051 529.742 523.973 534.279L523.973 534.279L523.974 534.279C526.93 535.973 529.887 537.666 532.781 539.441L533.845 540.1C544.115 546.529 553.937 554.645 558.472 565.838C559.303 567.891 561.857 569.06 563.954 568.348C566.052 567.636 567.366 565.154 566.776 563.019C568.971 564.821 567.704 568.847 565.044 569.843C562.384 570.838 559.335 569.487 557.372 567.435C555.893 565.889 554.86 564 553.829 562.113L553.829 562.112L553.828 562.112L553.828 562.111L553.828 562.11L553.825 562.105C553.489 561.49 553.153 560.876 552.801 560.273C546.462 549.405 535.263 542.655 524.153 536.477L518.937 533.59C506.881 526.857 494.528 518.77 489.364 506.026C470.617 509 451.102 506.983 433.36 500.236C429.565 498.793 425.849 497.138 422.135 495.484L422.135 495.484C416.218 492.85 410.306 490.217 404.086 488.445C400.621 487.457 395.844 487.351 394.547 490.713C394.546 490.712 394.545 490.715 394.541 490.721C394.504 490.787 394.257 491.219 393.152 491.314C392.633 491.358 392.157 490.449 392.009 489.847C391.883 489.678 391.84 489.202 391.84 488.225C391.84 487.698 392.913 485.396 394.933 483.971C396.338 482.981 397.919 482.622 398.747 482.433C399.121 482.348 399.341 482.298 399.323 482.241C399.281 482.108 397.844 481.736 396.539 482.369C395.531 482.858 394.577 483.503 393.7 484.097L393.7 484.097C392.344 485.015 391.171 485.808 390.27 485.703C389.049 485.562 388.183 484.992 388.169 483.763C388.156 482.535 388.482 481.04 389.43 480.269C391.456 478.619 394.071 477.71 396.683 477.747C397.248 477.755 397.873 477.836 398.241 478.264C398.609 478.691 398.428 479.545 397.864 479.57C394.478 479.722 390.563 480.289 389.245 483.763C388.861 484.774 391.285 484.937 392.221 484.398C392.765 484.085 393.232 483.664 393.7 483.243C394.038 482.938 394.377 482.633 394.745 482.369C395.846 481.577 397.213 481.163 398.569 481.211C399.115 481.23 399.717 481.356 400.039 481.798C400.362 482.24 400.134 483.042 399.588 483.051C396.077 483.108 392.873 486.151 392.632 489.653C392.645 489.78 392.743 490.358 393.152 490.496C393.629 490.656 394.157 490.267 394.178 490.228C396.006 486.964 399.343 484.783 402.93 485.876C404.286 486.289 405.591 486.917 406.891 487.543C409.163 488.638 411.418 489.724 413.896 489.632L412.409 481.746C406.38 476.219 397.293 474.27 389.528 476.839C388.697 477.114 387.799 477.513 387.46 478.32C387.121 479.127 387.865 480.299 388.682 479.987C387.397 481.176 385.224 479.157 385.713 477.476C386.202 475.794 388.046 474.93 389.741 474.489C399.252 472.017 408.732 476.326 417.892 480.49C419.592 481.263 421.282 482.03 422.958 482.749C441.611 490.744 462.686 492.98 482.602 489.078C481.738 491.442 478.793 492.157 476.292 492.438C458.553 494.433 440.332 491.992 423.744 485.398C421.718 487.972 422.683 491.971 424.989 494.298C427.295 496.625 430.556 497.682 433.695 498.62C451.283 503.876 469.93 507.897 487.902 504.159L484.989 487.117L484.93 486.807C484.786 486.126 484.522 485.423 483.886 485.207L483.725 485.153C460.69 477.33 443.134 471.368 420.339 449.638C420.293 449.594 420.248 449.55 420.205 449.504C420.037 456.035 417.965 457.472 409.329 455.692C390.485 451.807 371.191 449.774 352.171 452.446C353.61 445.338 355.411 438.303 357.566 431.378C351.378 433.375 344.071 427.704 344.472 421.213C344.872 414.723 352.819 409.991 358.716 412.734C360.741 408.06 360.87 402.596 359.066 397.832C358.201 395.547 361.649 394.229 364.093 394.228L377.595 394.225C379.483 394.225 382.114 393.348 381.645 391.52C380.534 387.185 383.515 382.231 387.866 381.184C392.138 380.155 396.948 383.081 398.051 387.32L398.109 387.557C399.134 392.11 404.901 393.555 409.567 393.466L411.89 393.41C415.926 393.326 420.132 393.457 422.833 396.28C426.064 399.656 425.342 405.033 424.277 409.616L424.206 409.92C423.686 412.11 422.929 413.89 422.168 415.68C420.717 419.09 419.25 422.537 419.38 428.933C419.433 431.54 419.527 433.933 419.634 436.124C420.009 434.585 420.339 433.569 420.339 433.569C420.339 433.569 464.347 466.336 491.527 470.784C494.784 467.907 492.904 462.299 489.624 459.45C488.241 458.249 486.667 457.278 485.097 456.309C482.942 454.98 480.795 453.655 479.159 451.746C475.91 447.953 475.33 442.726 474.754 437.544C474.128 431.909 473.508 426.327 469.47 422.696C469.11 422.372 468.726 422.07 468.343 421.767L468.342 421.767C467.477 421.084 466.613 420.403 466.024 419.483C464.568 417.206 465.284 414.038 467.048 411.989C468.811 409.941 471.39 408.798 473.942 407.907C479.239 406.057 485.047 405.025 490.456 406.515C495.865 408.005 500.71 412.509 501.242 418.095C502.268 415.873 504.521 414.267 506.956 414.023L503.421 417.78L507.894 417.869L501.739 421.306C505.555 428.363 504.937 437.068 502.491 444.708C502.192 445.642 501.866 446.576 501.54 447.512L501.54 447.513L501.538 447.518C500.231 451.268 498.913 455.048 499.251 458.962C499.666 463.774 503.939 468.689 508.61 467.704L508.844 467.65C514.458 466.232 520.605 467.053 525.65 469.895C531.533 473.209 535.538 478.829 539.501 484.391C540.421 485.682 541.339 486.97 542.277 488.225C546.675 494.107 551.88 499.576 558.386 502.984C564.892 506.391 572.87 507.516 579.647 504.687C580.893 504.167 582.091 503.52 583.287 502.875C585.318 501.779 587.343 500.686 589.589 500.22C593.157 499.481 597.701 501.227 598.124 504.846C596.278 501.762 591.905 501.215 588.465 502.255C586.523 502.842 584.732 503.801 582.939 504.762L582.938 504.762C581.554 505.504 580.168 506.246 578.711 506.818C571.412 509.683 562.912 507.947 556.193 503.905C549.684 499.99 544.585 494.145 539.985 488.088L539.541 487.501C539.075 486.881 538.61 486.258 538.146 485.633L538.145 485.632L538.143 485.63L538.143 485.629L538.141 485.628L538.141 485.626L538.139 485.625L538.138 485.623L538.137 485.622C534.903 481.276 531.645 476.897 527.376 473.591C522.587 469.882 516.156 467.69 510.391 469.47L510.039 469.584C504.524 471.452 498.683 466.176 497.69 460.439C496.698 454.701 499.037 448.968 501.326 443.614C503.687 438.092 499.351 431.648 493.885 429.159C488.813 426.849 482.722 426.901 477.69 429.298C476.06 430.074 475.765 432.213 475.82 434.042L475.827 434.244C476.11 440.7 477.834 447.486 482.547 451.908C483.948 453.223 485.568 454.284 487.184 455.344C489.206 456.67 491.224 457.993 492.804 459.805C495.648 463.065 496.085 469.172 492.135 470.935C498.913 472.159 505.619 473.779 512.208 475.785C476.758 472.159 444.163 455.438 420.762 435.241C420.283 436.177 419.945 437.165 419.74 438.18C419.795 439.192 419.85 440.157 419.903 441.074C419.978 442.37 420.047 443.573 420.101 444.688C421.228 448.395 423.861 451.663 427.477 453.1C427.19 450.496 428.068 447.785 429.827 445.843C428.686 448.395 426.875 453.287 433.937 458.239ZM488.39 408.334C485.235 407.746 482.029 407.434 478.82 407.4C478.602 407.804 478.52 408.28 478.589 408.733C482.166 409.031 485.689 409.974 488.938 411.502C487.58 412.86 485.337 412.047 483.515 411.386L483.408 411.348C480.294 410.22 476.876 409.948 473.624 410.567C471.965 410.883 470.305 411.451 469.028 412.555C467.75 413.66 466.914 415.378 467.199 417.043C467.563 419.169 469.563 420.621 471.559 421.439C476.507 423.466 482.437 422.895 486.908 419.961C487.27 419.723 487.781 420.12 487.802 420.553C487.823 420.986 487.531 421.368 487.224 421.674C485.442 423.447 482.792 424.012 480.282 424.158C479.549 424.201 478.813 424.215 478.076 424.229H478.076H478.075C476.289 424.264 474.504 424.299 472.779 424.736C473.012 426.159 474.789 426.649 476.227 426.753C481.723 427.152 487.298 426.412 492.5 424.594C493.802 424.139 495 425.444 495.768 426.59L501.371 434.952C503.212 433.219 503.101 430.226 502.233 427.851C501.894 426.924 501.463 426.029 501.031 425.135C500.359 423.742 499.688 422.352 499.373 420.845C499.199 420.014 499.136 419.162 499.074 418.311V418.311C498.986 417.116 498.898 415.924 498.503 414.8C497.109 410.84 492.517 409.103 488.39 408.334ZM420.703 484.662L415.617 481.74C415.053 481.416 414.013 481.361 414.07 482.009C413.896 484.635 414.111 487.851 415.798 490.039C416.862 491.417 417.63 492.123 421.386 493.056L421.109 485.703C421.095 485.314 421.041 484.856 420.703 484.662ZM498.15 444.665C498.769 444.306 499.163 443.667 499.531 443.054C500.189 441.958 500.867 440.797 500.897 439.519C500.926 438.241 500.042 436.847 498.765 436.796C498.129 436.771 497.525 437.074 497.006 437.441C495.854 438.257 494.964 439.438 494.5 440.771C495.088 441.618 496.418 440.861 497.01 440.016C497.602 439.172 498.479 438.104 499.421 438.525C498.799 440.681 497.7 442.697 496.225 444.387C496.619 444.984 497.532 445.023 498.15 444.665ZM508.325 506.767C506.911 504.521 505.383 502.096 502.863 501.365C508.454 511.888 517.12 520.755 527.512 526.585C531.141 528.621 534.967 530.293 538.791 531.963C544.123 534.293 549.448 536.62 554.217 539.925C560.193 544.067 565.135 549.688 568.479 556.144C567.164 546.938 559.467 539.891 551.249 535.539C547.529 533.569 543.621 531.98 539.714 530.393L539.714 530.393C534.991 528.474 530.271 526.556 525.89 523.965C518.907 519.836 512.923 514.03 508.583 507.176C508.497 507.041 508.411 506.904 508.325 506.767ZM525.887 509.88L526.043 510.227C526.731 511.82 527.208 513.82 525.916 514.898C524.887 515.758 523.326 515.429 522.112 514.859C519.487 513.627 517.317 511.45 516.092 508.821C517.624 508.517 519.061 507.747 520.161 506.638C521.076 505.716 522.693 505.903 523.723 506.692C524.754 507.481 525.339 508.704 525.887 509.88ZM525.054 513.648C526.376 511.273 523.678 507.771 522.361 507.543C521.787 507.445 521.196 508.012 520.56 508.622C519.907 509.248 519.209 509.918 518.437 509.957C518.437 509.957 523.731 516.023 525.054 513.648ZM591.761 520.476C623.878 519.421 655.232 503.775 675.387 478.747C676.43 477.451 678.496 477.429 679.946 478.243C681.396 479.057 682.376 480.488 683.303 481.869C684.314 481.721 684.344 480.152 683.647 479.405C683.304 479.036 682.873 478.769 682.442 478.501C681.998 478.226 681.555 477.951 681.208 477.567C679.805 476.014 680.555 473.569 681.377 471.644L685.041 463.064C685.532 461.914 686.3 460.573 687.55 460.591C688.464 460.603 689.168 461.368 689.748 462.074C696.071 469.778 701.937 477.857 707.304 486.254C703.995 486.767 700.814 485.137 697.676 483.529C694.171 481.733 690.72 479.964 687.205 481.239C684.142 482.349 682.337 485.433 680.715 488.259C675.411 497.501 669.333 506.403 661.636 513.773C643.759 530.888 618.814 538.296 594.512 542.979C609.544 548.669 626.103 550.265 641.945 547.551C651.011 545.998 660.051 542.939 667.117 537.05C669.978 534.666 672.46 531.866 674.93 529.078L693.128 508.535C694.194 507.333 696.16 508.487 697.153 509.751C698.146 511.014 699.492 512.589 701.006 512.05C699.923 509.624 698.042 507.561 695.725 506.26C695.587 503.362 695.501 500.259 697.041 497.801C698.582 495.342 702.422 494.145 704.421 496.248C710.974 503.141 717.253 510.295 723.239 517.687C719.727 518.239 716.389 516.728 713.077 515.227L713.077 515.227L713.076 515.227L713.076 515.227L713.075 515.227L713.074 515.227C712.051 514.763 711.031 514.301 710.008 513.901C705.674 512.205 699.597 512.242 697.621 516.455C692.214 527.98 686.597 539.799 677.317 548.513C661.819 563.065 639.174 566.35 618.049 568.746C608.681 569.808 599.057 570.816 589.935 568.431C583.296 566.694 577.255 563.24 571.303 559.823L566.58 557.112C565.19 557.46 566.307 559.566 567.541 560.294C575.448 564.957 583.599 569.709 592.666 571.138C594.976 571.502 597.316 571.644 599.653 571.732C621.172 572.54 642.852 568.766 662.831 560.731C671.162 557.381 679.641 552.901 684.217 545.174L700.34 517.945C700.958 516.902 701.637 515.801 702.733 515.283C704.068 514.652 705.638 515.054 707.056 515.466L722.169 519.856C723.714 520.304 725.149 518.493 724.988 516.893C724.827 515.293 723.671 513.996 722.573 512.821L708.635 497.903C706.797 495.935 704.82 493.881 702.224 493.164C699.627 492.448 696.289 493.709 695.781 496.355C694.282 504.163 688.948 510.598 683.8 516.658C675.832 526.036 667.536 535.674 656.476 541.071C640.617 548.81 621.875 546.562 604.51 543.418L615.77 540.139C621.344 538.515 626.926 536.889 632.329 534.766C653.288 526.53 671.141 510.638 681.751 490.775C683.592 487.327 685.758 483.342 689.605 482.65C692.766 482.081 695.462 483.948 698.218 485.857C699.856 486.991 701.515 488.14 703.306 488.801C705.948 489.777 710.048 488.389 709.427 485.642C709.286 485.021 708.91 484.484 708.542 483.965L694.204 463.752C692.215 460.948 689.234 457.78 685.961 458.832C683.331 459.678 682.345 462.714 681.475 465.391L681.396 465.635L681.36 465.745L681.319 465.869C677.238 478.305 666.265 486.991 655.85 494.918C651.293 498.385 646.724 501.861 641.807 504.795C627.442 513.366 610.596 516.994 593.904 518.078C589.188 518.384 586.224 522.808 583.511 526.858C583.189 527.339 582.87 527.815 582.552 528.279C577.906 535.048 571.29 540.449 563.727 543.645C564.993 545.043 567.297 544.205 568.896 543.206C576.484 538.463 582.922 531.892 587.507 524.208C588.519 522.513 589.789 520.541 591.761 520.476ZM490.994 447.923C490.255 449.54 488.609 450.704 486.838 450.862C485.067 451.019 483.241 450.164 482.229 448.702C481.857 448.165 481.861 447.116 482.511 447.173C483.866 448.971 486.69 449.437 488.549 448.167C489.354 447.617 490.751 446.978 490.994 447.923ZM476.758 436.169C476.918 434.815 478.061 433.638 479.41 433.436C480.759 433.235 482.195 434.028 482.744 435.277C481.758 435.277 481.096 435.098 480.546 434.95C479.426 434.647 478.765 434.469 476.758 436.169ZM487.215 443.716L485.68 444.374L485.591 444.323C485.193 445.081 484.02 444.223 483.93 443.371C483.912 443.195 483.903 443.009 483.894 442.821C483.86 442.099 483.824 441.349 483.228 441.025C482.482 442.099 482.141 443.512 482.575 444.745C483.009 445.978 484.328 446.913 485.614 446.681C486.9 446.449 487.824 444.872 487.215 443.716ZM489.058 433.249C491 433.405 491.517 433.51 492.052 434.787C492.158 435.039 491.328 434.802 490.537 434.576L490.536 434.576C489.955 434.41 489.394 434.25 489.243 434.295C482.744 436.222 487.116 433.093 489.058 433.249ZM488.51 436.606C489.582 437.456 489.272 440.845 487.688 440.207C487.024 439.94 486.231 434.799 488.51 436.606ZM539.88 527.341C539.368 526.703 539.949 525.564 540.766 525.604C541.127 525.838 541.373 526.242 541.414 526.67C541.104 527.173 540.464 527.449 539.885 527.327L539.88 527.341ZM525.286 520.736L526.402 520.566L526.491 520.534C526.879 519.81 525.612 518.983 525.105 519.63C524.995 520.001 525.064 520.42 525.286 520.736ZM533.232 525.138C532.585 525.313 532.497 524.202 532.861 523.64L534.406 524.342C534.168 524.76 533.726 525.054 533.249 525.114L533.232 525.138ZM513.941 508.946C513.77 508.522 513.156 508.36 512.798 508.644L512.896 508.742C512.586 509.147 512.832 509.839 513.328 509.958C513.783 509.913 514.112 509.37 513.941 508.946ZM480.005 440.286C479.383 440.286 478.733 439.678 478.765 438.621C478.797 437.565 479.084 436.588 480.005 437.107C480.926 437.626 480.646 440.286 480.005 440.286ZM190.375 311.905C190.75 312.398 191.606 312.181 191.935 311.658C192.265 311.134 192.223 310.468 192.164 309.852C191.302 300.948 188.991 292.187 185.35 284.016C184.313 281.689 183.222 278.787 184.81 276.795C188.481 285.969 192.182 295.257 193.519 305.048C193.884 307.72 194.015 310.646 192.525 312.895C191.035 315.143 187.323 316.005 185.668 313.875C188.214 313.344 190.162 310.766 189.978 308.171C191.154 308.973 191.356 310.874 190.375 311.905ZM220.046 488.693C233.366 487.963 248.796 486.04 255.783 474.676C257.594 471.729 257.208 467.097 256.889 463.279C256.634 460.212 256.422 457.672 257.429 456.954C259.689 455.342 261.498 459.498 261.498 459.498C261.564 459.223 261.64 458.883 261.725 458.499C262.357 455.667 263.519 450.452 265.346 451.432C266.097 451.835 265.839 454.37 265.661 456.112L265.661 456.113C265.619 456.522 265.582 456.887 265.563 457.17C265.521 457.439 265.515 457.664 265.547 457.824C265.572 457.813 265.599 457.798 265.626 457.779C265.637 457.778 265.65 457.771 265.663 457.76C265.674 457.751 265.685 457.74 265.696 457.726C265.992 457.477 266.396 456.861 266.846 456.175L266.847 456.175C267.779 454.755 268.907 453.037 269.663 453.669C270.85 454.66 266.63 460.988 266.63 460.988C266.63 460.988 271.642 455.48 272.065 457.824C272.488 460.168 261.073 481.34 250.769 489.643C240.465 497.947 225.946 502.595 212.818 500.931C213.111 495.724 214.839 488.979 220.046 488.693ZM265.696 457.726C265.672 457.746 265.649 457.764 265.626 457.779C265.547 457.792 265.538 457.557 265.563 457.17C265.66 456.557 265.946 455.718 266.404 454.916C266.317 455.191 266.231 455.458 266.149 455.708C265.783 456.83 265.518 457.643 265.793 457.579C265.773 457.615 265.754 457.646 265.737 457.671C265.722 457.693 265.709 457.711 265.696 457.726ZM268.177 452.948C267.439 453.415 266.843 454.148 266.404 454.916C267.088 452.75 267.78 450.018 266.097 449.8C263.242 449.429 260.452 454.076 260.947 456.544C260.155 454.578 256.858 455.429 256.06 457.393C255.447 458.9 255.708 460.55 255.967 462.189L255.967 462.189L255.967 462.19C256.045 462.686 256.123 463.182 256.177 463.672C257.035 471.503 251.163 478.824 244.045 482.201C237.334 485.386 229.718 485.833 222.268 486.064L220.531 486.115C216.278 486.226 211.672 486.128 208.426 483.413C205.082 480.616 205.086 473.979 209.285 472.806C219.945 469.829 228.076 459.442 228.407 448.38C228.505 445.11 230.626 442.389 232.675 439.76C232.859 439.524 233.043 439.288 233.224 439.053L233.674 438.464C235.968 435.421 237.854 431.229 235.928 427.941C232.944 431.77 227.353 433.314 222.827 431.559C220.938 430.827 219.265 429.603 217.602 428.388C215.376 426.76 213.168 425.146 210.486 424.742C205.242 423.952 200.04 429.262 200.938 434.489C199.518 433.297 197.315 435.101 197.161 436.948C197.071 438.033 197.356 439.09 197.643 440.15C197.844 440.895 198.046 441.641 198.119 442.402C198.204 443.287 198.113 444.173 198.023 445.061C197.961 445.66 197.9 446.26 197.893 446.861C197.855 449.973 199.241 452.852 200.606 455.688L200.608 455.691L200.609 455.695C200.746 455.979 200.882 456.262 201.017 456.545L201.382 457.323C202.937 460.693 204.09 464.704 202.433 468.025C200.777 471.346 195.138 472.387 193.541 469.037C185.712 452.619 167.967 441.44 149.778 441.468C128.718 441.499 109.77 455.378 97.3585 472.392C95.8106 474.514 94.2956 476.8 93.9583 479.405C93.6209 482.01 94.8297 484.999 97.3075 485.87C99.7854 486.742 102.998 484.305 102.191 481.805C103.448 483.273 106.019 481.885 106.611 480.046C106.944 479.012 106.94 477.922 106.936 476.828C106.933 475.975 106.93 475.12 107.086 474.288C107.854 470.208 112.051 467.852 115.828 466.129L116.59 465.783C125.488 461.756 134.758 458.161 144.49 457.478C154.501 456.774 165.183 459.557 172.062 466.863C162.675 469.09 157.224 478.509 152.879 487.208L152.276 488.421C147.889 497.231 142.143 506.843 132.522 508.711C132.888 510.609 134.563 512.179 136.481 512.42L101.211 533.389L103.917 536.746C95.3294 549.907 85.6169 562.334 74.9202 573.847C69.1043 580.107 61.5525 586.594 53.1333 585.136C51.6108 584.873 50.1348 584.35 48.6638 583.829C46.5099 583.067 44.3669 582.308 42.1054 582.372C38.2994 582.481 34.4799 587.111 37.0634 589.908C42.7848 596.102 49.3149 601.549 56.4355 606.065L56.62 606.181C57.4868 606.721 58.4402 607.225 59.4453 607.11C60.4614 606.994 61.2887 606.271 62.0445 605.582L109.812 562.028C113.724 558.489 118.029 554.949 123.241 554.429L123.681 554.376C127.535 553.84 130.71 551.403 133.895 548.959C135.281 547.895 136.669 546.829 138.116 545.919C143.012 542.838 151.132 542.522 153.036 547.984C154.047 550.886 152.723 553.838 151.418 556.748L151.418 556.749C151.029 557.616 150.641 558.479 150.318 559.336C148.91 563.069 150.064 568.811 154.053 568.74L176.377 568.345C177.179 568.337 178.024 568.382 178.648 568.873C179.301 569.386 179.53 570.241 179.655 571.079L179.707 571.463C180.548 578.301 180.432 585.255 179.364 592.061C178.206 599.436 175.126 607.548 168.167 610.252C163.778 611.958 158.889 611.072 154.266 610.014L126.176 603.452C126.129 600.051 129.206 597.281 132.487 596.38C135.269 595.615 138.19 595.848 141.083 596.079H141.084C141.261 596.094 141.439 596.108 141.617 596.122L142.637 596.198C149.746 596.686 156.933 596.026 163.834 594.25L153.876 569.331C154.891 577.603 157.129 585.725 160.494 593.35L127.76 594.413C124.909 594.492 121.745 594.366 119.828 592.286C119.337 591.752 118.927 591.095 118.52 590.444C117.686 589.107 116.867 587.794 115.386 587.623C114.106 587.475 112.947 588.33 111.966 589.166C105.567 594.625 100.253 601.352 96.4243 608.842C97.8046 612.259 102.378 613.215 105.931 612.235C108.009 611.661 109.906 610.627 111.806 609.591C113.155 608.857 114.505 608.121 115.923 607.548C123.836 604.349 132.535 606.517 140.892 609.033L145.855 610.545C155.664 613.491 167.624 615.002 174.975 607.87C179.313 603.662 180.893 597.399 181.752 591.417C184.23 574.154 182.221 556.266 175.975 539.983C182.939 537.296 186.225 529.506 188.78 522.492L193.784 508.757C195.455 504.167 199.253 498.536 203.774 500.385C216.697 505.67 231.961 503.436 243.992 496.352C256.024 489.268 265.03 477.792 271.097 465.217L271.259 464.878C272.446 462.379 273.959 456.548 272.608 455.902C272.104 455.506 271.206 456.163 270.595 456.611C270.264 456.853 270.017 457.034 269.961 456.954C269.926 456.905 270.037 456.582 270.194 456.125C270.812 454.324 272.146 450.438 268.177 452.948ZM182.659 530.051C181.096 533.567 178.509 537.704 174.69 537.237C172.645 536.987 171.101 535.443 169.712 533.857L168.967 532.995C160.897 523.627 149.934 517.401 138.915 511.669L135.243 509.773C144.219 508.007 149.756 499.13 153.71 490.881L154.97 488.252C158.585 480.757 162.699 473.045 170.156 469.671C171.187 469.205 172.369 468.833 173.432 469.221C173.593 469.279 173.767 469.346 173.948 469.416C175.26 469.92 176.95 470.57 176.923 469.327C174.531 468.362 174.137 464.873 175.517 462.693C176.777 460.703 178.96 459.555 181.121 458.565L181.737 458.286C180.359 456.385 177.371 457.984 175.81 459.738L175.681 459.881C174.115 461.599 171.71 463.481 169.902 462.084C162.43 456.311 152.473 454.458 143.074 455.364C133.676 456.271 124.709 459.707 116.123 463.636C112.976 465.075 109.78 466.645 107.445 469.199C105.638 471.175 105.451 473.805 105.263 476.448C105.208 477.221 105.152 477.996 105.056 478.756C104.825 480.594 103.814 480.664 102.923 480.726C102.446 480.759 102.004 480.79 101.734 481.089C101.712 481.113 101.642 481.22 101.537 481.381C101.003 482.202 99.5563 484.424 98.9029 484.203C97.9433 483.877 98.4326 481.805 98.4326 481.805C98.4326 481.805 95.5848 482.619 95.3728 481.805C94.6312 478.957 98.9029 473.13 98.9029 473.13C106.085 462.564 116.736 453.798 128.445 448.702C140.371 443.511 154.288 442.509 166.48 447.04C180.225 452.149 191.11 464.353 194.618 478.591C195.493 482.14 199.622 483.707 203.23 484.297C203.352 484.317 203.475 484.337 203.598 484.357C203.815 484.391 204.034 484.425 204.254 484.46L204.259 484.461C207.589 484.981 211.129 485.534 213.251 488.076C213.877 488.826 213.704 489.935 213.489 490.887L213.426 491.161C212.635 494.557 211.254 498.357 207.955 499.387C204.956 500.324 201.404 497.906 201.174 494.773C201.154 494.497 201.148 494.205 201.142 493.91C201.117 492.692 201.09 491.41 200.068 490.907L182.659 530.051ZM154.304 548.62C153.182 542.858 149.775 537.675 145.303 533.873C145.478 536.137 146.436 538.334 147.977 540.003C140.4 542.412 133.255 546.172 126.978 551.052C125.299 552.359 122.445 553.55 121.461 551.663C117.59 544.24 111.429 538.031 104.035 534.105L134.433 516.636C135.806 515.847 137.26 515.035 138.844 515.019C140.072 515.007 141.239 515.478 142.35 516.025L142.901 516.304C154.276 522.163 164.459 530.326 172.652 540.154C174.681 542.588 175.625 545.704 176.429 548.786L180.044 562.912C180.284 563.848 180.459 565.006 179.726 565.634C179.314 565.988 178.733 566.049 178.191 566.091L177.557 566.14C168.556 566.833 161.294 567.392 152.276 566.091C150.931 563.511 151.947 560.314 152.997 557.013C153.897 554.184 154.821 551.279 154.304 548.62ZM109.082 539.934C112.455 542.904 115.495 546.251 118.129 549.893C118.411 550.282 118.701 550.717 118.671 551.197C118.636 551.757 118.182 552.188 117.76 552.557L78.4711 586.944C76.8329 588.378 74.2195 588.127 72.3845 586.955C70.7789 585.93 69.6309 584.358 68.5775 582.757L68.1309 582.07C78.3701 576.689 84.9383 567.049 91.5649 557.324C95.7214 551.223 99.9009 545.089 105.024 539.951C105.522 539.452 106.083 538.935 106.784 538.856C107.651 538.759 108.427 539.357 109.082 539.934ZM223.495 444.017L224.498 444.326C226.452 444.93 226.776 447.547 226.528 449.577C225.498 457.98 220.275 466.298 212.221 468.909L211.933 469.007C206.685 470.859 202.933 476.349 203.157 481.918C199.634 482.578 195.857 479.76 195.487 476.195C195.413 475.484 195.624 474.561 196.33 474.453C199.531 473.961 202.474 471.997 204.157 469.23C205.84 466.464 206.23 462.946 205.194 459.878C204.983 459.252 204.714 458.624 204.445 457.996C203.679 456.21 202.911 454.417 203.449 452.615C204.675 452.728 204.908 454.41 204.779 455.635L204.765 455.784C204.665 456.992 204.878 458.541 206.05 458.703C206.822 456.929 206.983 454.944 207.142 452.974C207.343 450.486 207.543 448.022 208.969 446.04C210.6 443.774 213.526 442.733 216.318 442.7C218.761 442.671 221.149 443.306 223.495 444.017ZM46.9663 585.703L47.2182 585.413C48.6243 585.105 49.967 586.905 49.2707 588.165C48.8239 588.974 50.1979 589.773 50.965 589.259C51.7322 588.745 51.8869 587.701 51.9713 586.781C52.7432 586.539 53.4108 587.423 53.5565 588.219C53.595 588.429 53.6189 588.647 53.6428 588.864L53.6428 588.864C53.7094 589.47 53.7761 590.077 54.1584 590.533C54.6781 591.153 56.055 590.833 55.8291 590.056C55.4923 588.897 56.8609 587.952 58.0553 587.781C58.3425 587.74 58.639 587.715 58.9363 587.691C59.8755 587.614 60.8225 587.536 61.5062 586.926L61.6093 586.844C62.477 586.228 63.5514 587.367 64.2064 588.378L64.511 588.869C65.9511 591.107 68.3989 592.675 71.038 593.033C71.5551 593.103 71.292 593.909 70.9121 594.267L62.0055 602.655C61.5738 603.061 60.8741 602.772 60.3684 602.463C55.0816 599.225 50.201 595.326 45.8772 590.883C44.5151 589.484 45.6703 587.251 46.9663 585.703ZM124.855 601.314C124.599 602.372 123.868 603.556 122.783 603.476C120.167 603.283 117.514 603.598 115.016 604.399C115.245 603.334 114.779 602.153 113.885 601.53C113.232 602.464 113.499 603.911 114.442 604.55L111.951 607.01L110.759 604.271C110.171 604.427 110.154 605.149 110.195 605.81L110.224 606.221C110.343 607.955 108.872 609.641 107.138 609.758C105.403 609.875 103.719 608.402 103.604 606.667C103.48 604.778 104.927 603.192 106.272 601.86L115.826 592.4C116.029 592.207 116.262 592.027 116.536 592.032C116.839 592.037 117.085 592.267 117.298 592.482L121.026 596.244C121.749 596.974 121.292 598.09 120.847 599.178C120.389 600.298 119.943 601.387 120.808 601.994C121.651 602.044 122.353 601.312 122.676 600.533C122.842 600.135 122.942 599.716 123.043 599.296C123.139 598.893 123.236 598.489 123.389 598.106C123.704 597.322 124.382 596.576 125.226 596.594C126.07 596.612 126.721 597.818 126.068 598.354C125.372 598.924 125.174 599.853 124.98 600.755L124.98 600.756C124.94 600.944 124.9 601.132 124.855 601.314ZM59.5351 605.497C50.948 600.904 43.3574 594.459 37.4327 586.73C38.2096 585.994 39.378 586.776 40.1294 587.61L40.3154 587.828C45.9448 594.794 53.0146 600.591 60.9488 604.746C60.8845 605.372 60.0903 605.794 59.5351 605.497ZM100.718 603.739C104.437 598.874 108.559 594.316 113.026 590.127C113.719 589.478 115.157 589.04 115.332 589.973C110.132 594.938 105.157 600.14 100.43 605.557C99.9163 605.112 100.305 604.279 100.718 603.739ZM72.1501 591.575C69.5545 590.652 67.2404 588.953 65.5825 586.752C64.9587 585.924 64.5652 584.486 65.5104 584.06C66.2575 583.724 66.9751 584.43 67.4962 585.115L67.8869 585.647C69.5659 587.862 71.9607 589.528 74.6243 590.325C74.629 591.036 74.0406 591.702 73.3349 591.785C72.9329 591.832 72.5314 591.711 72.1501 591.575ZM199.527 447.613C200.747 447.642 201.78 448.913 201.559 450.114L201.587 450.131C201.756 451.001 201.645 451.923 201.275 452.728C199.94 451.42 199.272 449.464 199.527 447.613ZM222.774 447.642C222.928 447.629 223.09 447.615 223.254 447.613C223.46 447.61 223.698 447.647 223.922 447.682C224.526 447.775 225.031 447.853 224.554 447.106C223.899 446.081 221.984 445.966 221.67 447.141C221.758 447.732 222.214 447.692 222.774 447.642ZM224.316 452.71C224.325 452.674 224.334 452.638 224.343 452.604C224.809 450.84 224.539 449.448 223.254 449.448C222.759 449.485 222.002 452.01 222.074 452.776C222.146 453.541 223.009 454.25 223.677 453.87C224.074 453.644 224.201 453.154 224.316 452.71ZM215.839 452.174C214.943 450.929 214.849 449.158 215.608 447.826C215.721 447.627 215.858 447.431 216.057 447.317C216.56 447.029 217.232 447.42 217.454 447.955C217.675 448.49 217.578 449.097 217.478 449.668C217.478 449.668 216.735 453.418 215.839 452.174ZM405.624 452.21C389.257 448.196 372.16 447.18 355.434 449.233C358.336 442.469 359.611 435.013 359.119 427.669C354.76 430.724 347.605 427.141 347.439 421.821C347.274 416.501 354.194 412.481 358.734 415.259C359.937 415.995 361.26 414.468 361.741 413.142C363.38 408.624 363.396 403.536 361.786 399.008C361.158 397.245 363.82 396.288 365.691 396.325L381.574 396.64C382.641 396.661 383.773 396.665 384.684 396.11C385.595 395.555 386.112 394.219 385.443 393.388C382.695 389.978 385.854 383.875 390.225 384.149C394.596 384.424 396.966 390.874 393.813 393.914C393.225 394.481 394.368 395.211 395.185 395.23L415.952 395.708C420.083 395.803 423.001 400.203 423.17 404.331C423.313 407.824 422.072 411.17 420.847 414.475C420.74 414.763 420.633 415.051 420.528 415.338L420.189 416.273C416.51 426.594 415.326 437.795 416.766 448.657C417.046 450.776 415.095 452.661 413.008 453.12C411.166 453.525 409.269 453.123 407.425 452.662L405.624 452.21Z" fill="#00160A"/>
<path fill-rule="evenodd" clip-rule="evenodd" d="M184.261 262.125C184.413 261.146 185.717 260.58 186.66 260.916C187.603 261.252 188.445 262.604 187.754 263.369C186.66 264.58 183.968 264.024 184.261 262.125Z" fill="#FFB61D"/>
<path fill-rule="evenodd" clip-rule="evenodd" d="M594.67 515.609C594.053 516.127 592.817 516.314 592.702 515.517C595.108 513.07 596.763 509.894 597.391 506.52C598.176 506.31 598.403 507.561 598.206 508.35C597.542 511.007 596.768 513.848 594.67 515.609Z" fill="#00160A"/>
<path d="M63.6261 224.025C63.6017 224.814 62.4049 224.768 61.6812 224.453C61.9417 223.749 62.9978 223.514 63.5328 224.04L63.6261 224.025Z" fill="black"/>
<path fill-rule="evenodd" clip-rule="evenodd" d="M405.136 440.768C404.302 441.51 402.899 440.376 403.023 439.267C403.147 438.157 404.13 437.364 405.072 436.766C408.451 434.626 412.364 433.336 416.354 433.047C416.461 434.569 414.489 435.197 412.992 435.489C409.816 436.108 406.79 437.484 404.236 439.471C404.698 439.754 405.032 440.237 405.136 440.768V440.768Z" fill="#00160A"/>
<path fill-rule="evenodd" clip-rule="evenodd" d="M416.467 442.709C414.595 443.612 412.69 444.447 410.757 445.211C410.976 446.026 412.148 445.999 412.943 445.713C413.737 445.426 414.782 445.124 415.297 445.794C413.99 447.789 410.752 448.1 409.089 446.39C408.366 445.647 407.057 446.136 406.123 445.685C404.787 445.04 405.036 443.022 405.823 441.764C407.465 439.137 410.597 437.517 413.69 437.695C414.868 437.763 416.275 438.344 416.353 439.521C412.659 439.289 408.893 440.812 406.399 443.547C407.816 444.643 409.848 443.825 411.446 443.015C413.044 442.206 415.154 441.49 416.467 442.709Z" fill="#00160A"/>
<path fill-rule="evenodd" clip-rule="evenodd" d="M219.826 453.187C220.886 454.248 221.326 454.733 221.326 456.294C221.326 457.854 220.48 458.855 219.051 459.313C218.393 459.525 217.481 459.363 217.31 458.693C222.07 457.721 220.321 455.646 219.826 453.187Z" fill="#00160A"/>
<path fill-rule="evenodd" clip-rule="evenodd" d="M213.476 446.551C213.983 444.867 216.192 443.957 217.738 444.795C218.35 445.126 218.859 445.729 218.891 446.424C217.086 446.466 215.599 445.299 213.476 446.551Z" fill="#00160A"/>
<path fill-rule="evenodd" clip-rule="evenodd" d="M217.797 461.589C207.728 455.999 215.611 463.162 217.797 461.589V461.589Z" fill="#00160A"/>
</svg>
